<svg xmlns="http://www.w3.org/2000/svg" xmlns:xlink="http://www.w3.org/1999/xlink" width="179.02545928955078" height="141.05560302734375" viewBox="0 0 179.02545928955078 141.05560302734375" fill="none">
<path   fill="rgba(42, 46, 55, 1)"  d="M14.03 22.17L30.03 22.17Q30.1282 22.17 30.226 22.1796Q30.3238 22.1892 30.4202 22.2084Q30.5165 22.2276 30.6106 22.2561Q30.7046 22.2846 30.7954 22.3222Q30.8861 22.3598 30.9728 22.4061Q31.0594 22.4525 31.1411 22.507Q31.2228 22.5616 31.2988 22.624Q31.3747 22.6863 31.4442 22.7558Q31.5137 22.8252 31.576 22.9012Q31.6383 22.9771 31.6929 23.0588Q31.7475 23.1405 31.7938 23.2272Q31.8401 23.3138 31.8777 23.4046Q31.9153 23.4954 31.9439 23.5894Q31.9724 23.6834 31.9916 23.7798Q32.0107 23.8762 32.0204 23.9739Q32.03 24.0717 32.03 24.17Q32.03 24.2682 32.0204 24.366Q32.0107 24.4638 31.9916 24.5602Q31.9724 24.6565 31.9439 24.7506Q31.9153 24.8446 31.8777 24.9353Q31.8401 25.0261 31.7938 25.1128Q31.7475 25.1994 31.6929 25.2811Q31.6383 25.3628 31.576 25.4388Q31.5137 25.5147 31.4442 25.5842Q31.3747 25.6537 31.2988 25.716Q31.2228 25.7783 31.1411 25.8329Q31.0594 25.8875 30.9728 25.9338Q30.8861 25.9801 30.7954 26.0177Q30.7046 26.0553 30.6106 26.0839Q30.5165 26.1124 30.4202 26.1315Q30.3238 26.1507 30.226 26.1604Q30.1282 26.17 30.03 26.17L14.03 26.17Q13.9317 26.17 13.834 26.1604Q13.7362 26.1507 13.6398 26.1316Q13.5435 26.1124 13.4494 26.0839Q13.3554 26.0553 13.2646 26.0177Q13.1739 25.9801 13.0872 25.9338Q13.0006 25.8875 12.9189 25.8329Q12.8372 25.7783 12.7612 25.716Q12.6853 25.6537 12.6158 25.5842Q12.5463 25.5147 12.484 25.4388Q12.4216 25.3628 12.3671 25.2811Q12.3125 25.1994 12.2662 25.1128Q12.2198 25.0261 12.1822 24.9353Q12.1446 24.8446 12.1161 24.7506Q12.0876 24.6565 12.0684 24.5602Q12.0493 24.4638 12.0396 24.366Q12.03 24.2682 12.03 24.17Q12.03 24.0717 12.0396 23.9739Q12.0493 23.8762 12.0684 23.7798Q12.0876 23.6834 12.1161 23.5894Q12.1446 23.4954 12.1822 23.4046Q12.2198 23.3138 12.2662 23.2272Q12.3125 23.1405 12.3671 23.0588Q12.4216 22.9771 12.484 22.9012Q12.5463 22.8252 12.6158 22.7558Q12.6853 22.6863 12.7612 22.624Q12.8372 22.5616 12.9189 22.507Q13.0006 22.4525 13.0872 22.4061Q13.1739 22.3598 13.2646 22.3222Q13.3554 22.2846 13.4494 22.2561Q13.5435 22.2276 13.6398 22.2084Q13.7362 22.1892 13.834 22.1796Q13.9317 22.17 14.03 22.17ZM14.03 26.17C12.9254 26.17 12.03 25.2746 12.03 24.17C12.03 23.0654 12.9254 22.17 14.03 22.17C15.1346 22.17 16.03 23.0654 16.03 24.17C16.03 25.2746 15.1346 26.17 14.03 26.17ZM30.03 26.17C28.9254 26.17 28.03 25.2746 28.03 24.17C28.03 23.0654 28.9254 22.17 30.03 22.17C31.1346 22.17 32.03 23.0654 32.03 24.17C32.03 25.2746 31.1346 26.17 30.03 26.17Z">
</path>
<path   fill="rgba(212, 48, 48, 1)"  d="M46.0285 22.0569L62.0287 22.0569Q62.127 22.0569 62.2248 22.0666Q62.3226 22.0762 62.4189 22.0954Q62.5153 22.1145 62.6093 22.1431Q62.7033 22.1716 62.7941 22.2092Q62.8849 22.2468 62.9715 22.2931Q63.0582 22.3394 63.1399 22.394Q63.2216 22.4486 63.2975 22.5109Q63.3735 22.5733 63.443 22.6427Q63.5124 22.7122 63.5748 22.7882Q63.6371 22.8641 63.6917 22.9458Q63.7463 23.0275 63.7926 23.1142Q63.8389 23.2008 63.8765 23.2916Q63.9141 23.3824 63.9426 23.4764Q63.9711 23.5704 63.9903 23.6668Q64.0095 23.7631 64.0191 23.8609Q64.0287 23.9587 64.0287 24.0569Q64.0287 24.1552 64.0191 24.253Q64.0095 24.3508 63.9903 24.4471Q63.9711 24.5435 63.9426 24.6375Q63.9141 24.7315 63.8765 24.8223Q63.8389 24.9131 63.7926 24.9997Q63.7463 25.0864 63.6917 25.1681Q63.6371 25.2498 63.5748 25.3257Q63.5124 25.4017 63.443 25.4712Q63.3735 25.5406 63.2975 25.603Q63.2216 25.6653 63.1399 25.7199Q63.0582 25.7745 62.9715 25.8208Q62.8849 25.8671 62.7941 25.9047Q62.7033 25.9423 62.6093 25.9708Q62.5153 25.9993 62.4189 26.0185Q62.3226 26.0377 62.2248 26.0473Q62.127 26.0569 62.0287 26.0569L46.0285 26.0569Q45.9302 26.0569 45.8325 26.0473Q45.7347 26.0377 45.6383 26.0185Q45.5419 25.9993 45.4479 25.9708Q45.3539 25.9423 45.2631 25.9047Q45.1723 25.8671 45.0857 25.8208Q44.999 25.7745 44.9173 25.7199Q44.8357 25.6653 44.7597 25.603Q44.6838 25.5406 44.6143 25.4712Q44.5448 25.4017 44.4825 25.3257Q44.4201 25.2498 44.3655 25.1681Q44.311 25.0864 44.2646 24.9997Q44.2183 24.9131 44.1807 24.8223Q44.1431 24.7315 44.1146 24.6375Q44.0861 24.5435 44.0669 24.4471Q44.0478 24.3508 44.0381 24.253Q44.0285 24.1552 44.0285 24.0569Q44.0285 23.9587 44.0381 23.8609Q44.0478 23.7631 44.0669 23.6668Q44.0861 23.5704 44.1146 23.4764Q44.1431 23.3824 44.1807 23.2916Q44.2183 23.2008 44.2646 23.1142Q44.311 23.0275 44.3655 22.9458Q44.4201 22.8641 44.4825 22.7882Q44.5448 22.7122 44.6143 22.6427Q44.6838 22.5733 44.7597 22.5109Q44.8357 22.4486 44.9173 22.394Q44.999 22.3394 45.0857 22.2931Q45.1723 22.2468 45.2631 22.2092Q45.3539 22.1716 45.4479 22.1431Q45.5419 22.1145 45.6383 22.0954Q45.7347 22.0762 45.8325 22.0666Q45.9302 22.0569 46.0285 22.0569ZM46.0285 26.0569C44.9239 26.0569 44.0285 25.1615 44.0285 24.0569C44.0285 22.9524 44.9239 22.0569 46.0285 22.0569C47.1331 22.0569 48.0285 22.9524 48.0285 24.0569C48.0285 25.1615 47.1331 26.0569 46.0285 26.0569ZM62.0287 26.0569C60.9242 26.0569 60.0287 25.1615 60.0287 24.0569C60.0287 22.9524 60.9242 22.0569 62.0287 22.0569C63.1333 22.0569 64.0287 22.9524 64.0287 24.0569C64.0287 25.1615 63.1333 26.0569 62.0287 26.0569Z">
</path>
<path   fill="rgba(42, 46, 55, 1)"  d="M90.0285 16.0569L90.0285 32.0569Q90.0285 32.2534 90.0092 32.449Q89.99 32.6446 89.9516 32.8373Q89.9133 33.03 89.8563 33.2181Q89.7992 33.4061 89.724 33.5877Q89.6488 33.7692 89.5562 33.9425Q89.4635 34.1158 89.3544 34.2792Q89.2452 34.4426 89.1205 34.5945Q88.9959 34.7464 88.8569 34.8854Q88.718 35.0243 88.5661 35.149Q88.4142 35.2736 88.2508 35.3828Q88.0874 35.492 87.9141 35.5846Q87.7408 35.6772 87.5592 35.7524Q87.3777 35.8276 87.1896 35.8847Q87.0016 35.9417 86.8088 35.9801Q86.6161 36.0184 86.4206 36.0377Q86.225 36.0569 86.0285 36.0569Q85.832 36.0569 85.6364 36.0377Q85.4409 36.0184 85.2481 35.9801Q85.0554 35.9417 84.8673 35.8847Q84.6793 35.8276 84.4977 35.7524Q84.3162 35.6772 84.1429 35.5846Q83.9696 35.492 83.8062 35.3828Q83.6428 35.2736 83.4909 35.149Q83.339 35.0243 83.2001 34.8854Q83.0611 34.7464 82.9364 34.5945Q82.8118 34.4426 82.7026 34.2792Q82.5934 34.1158 82.5008 33.9425Q82.4082 33.7692 82.333 33.5877Q82.2578 33.4061 82.2007 33.2181Q82.1437 33.03 82.1053 32.8373Q82.067 32.6446 82.0478 32.449Q82.0285 32.2534 82.0285 32.0569L82.0285 16.0569Q82.0285 15.8604 82.0478 15.6649Q82.067 15.4693 82.1053 15.2766Q82.1437 15.0839 82.2007 14.8958Q82.2578 14.7078 82.333 14.5262Q82.4082 14.3447 82.5008 14.1714Q82.5934 13.9981 82.7026 13.8347Q82.8118 13.6713 82.9364 13.5194Q83.0611 13.3675 83.2001 13.2285Q83.339 13.0896 83.4909 12.9649Q83.6428 12.8402 83.8062 12.7311Q83.9696 12.6219 84.1429 12.5293Q84.3162 12.4366 84.4977 12.3614Q84.6793 12.2862 84.8673 12.2292Q85.0554 12.1721 85.2481 12.1338Q85.4409 12.0955 85.6364 12.0762Q85.832 12.0569 86.0285 12.0569Q86.225 12.0569 86.4206 12.0762Q86.6161 12.0955 86.8088 12.1338Q87.0016 12.1721 87.1896 12.2292Q87.3777 12.2862 87.5592 12.3614Q87.7408 12.4366 87.9141 12.5293Q88.0874 12.6219 88.2508 12.7311Q88.4142 12.8402 88.5661 12.9649Q88.718 13.0896 88.8569 13.2285Q88.9959 13.3675 89.1205 13.5194Q89.2452 13.6713 89.3544 13.8347Q89.4635 13.9981 89.5562 14.1714Q89.6488 14.3447 89.724 14.5262Q89.7992 14.7078 89.8563 14.8958Q89.9133 15.0839 89.9516 15.2766Q89.99 15.4693 90.0092 15.6649Q90.0285 15.8604 90.0285 16.0569ZM86.0285 20.0569C83.8194 20.0569 82.0285 18.2661 82.0285 16.0569C82.0285 13.8478 83.8194 12.0569 86.0285 12.0569C88.2376 12.0569 90.0285 13.8478 90.0285 16.0569C90.0285 18.2661 88.2376 20.0569 86.0285 20.0569ZM86.0285 36.0569C83.8194 36.0569 82.0285 34.2661 82.0285 32.0569C82.0285 29.8478 83.8194 28.0569 86.0285 28.0569C88.2376 28.0569 90.0285 29.8478 90.0285 32.0569C90.0285 34.2661 88.2376 36.0569 86.0285 36.0569Z">
</path>
<path   fill="rgba(33, 33, 33, 1.00)"  d="M122.028 16.0569L122.028 32.0569Q122.028 32.2534 122.009 32.449Q121.99 32.6446 121.952 32.8373Q121.913 33.03 121.856 33.2181Q121.799 33.4061 121.724 33.5877Q121.649 33.7692 121.556 33.9425Q121.464 34.1158 121.354 34.2792Q121.245 34.4426 121.121 34.5945Q120.996 34.7464 120.857 34.8854Q120.718 35.0243 120.566 35.149Q120.414 35.2736 120.251 35.3828Q120.087 35.492 119.914 35.5846Q119.741 35.6772 119.559 35.7524Q119.378 35.8276 119.19 35.8847Q119.002 35.9417 118.809 35.9801Q118.616 36.0184 118.421 36.0377Q118.225 36.0569 118.028 36.0569Q117.832 36.0569 117.636 36.0377Q117.441 36.0184 117.248 35.9801Q117.055 35.9417 116.867 35.8847Q116.679 35.8276 116.498 35.7524Q116.316 35.6772 116.143 35.5846Q115.97 35.492 115.806 35.3828Q115.643 35.2736 115.491 35.149Q115.339 35.0243 115.2 34.8854Q115.061 34.7464 114.936 34.5945Q114.812 34.4426 114.703 34.2792Q114.593 34.1158 114.501 33.9425Q114.408 33.7692 114.333 33.5877Q114.258 33.4061 114.201 33.2181Q114.144 33.03 114.105 32.8373Q114.067 32.6446 114.048 32.449Q114.028 32.2534 114.028 32.0569L114.028 16.0569Q114.028 15.8604 114.048 15.6649Q114.067 15.4693 114.105 15.2766Q114.144 15.0839 114.201 14.8958Q114.258 14.7078 114.333 14.5262Q114.408 14.3447 114.501 14.1714Q114.593 13.9981 114.703 13.8347Q114.812 13.6713 114.936 13.5194Q115.061 13.3675 115.2 13.2285Q115.339 13.0896 115.491 12.9649Q115.643 12.8402 115.806 12.7311Q115.97 12.6219 116.143 12.5293Q116.316 12.4366 116.498 12.3614Q116.679 12.2862 116.867 12.2292Q117.055 12.1721 117.248 12.1338Q117.441 12.0955 117.636 12.0762Q117.832 12.0569 118.028 12.0569Q118.225 12.0569 118.421 12.0762Q118.616 12.0955 118.809 12.1338Q119.002 12.1721 119.19 12.2292Q119.378 12.2862 119.559 12.3614Q119.741 12.4366 119.914 12.5293Q120.087 12.6219 120.251 12.7311Q120.414 12.8402 120.566 12.9649Q120.718 13.0896 120.857 13.2285Q120.996 13.3675 121.121 13.5194Q121.245 13.6713 121.354 13.8347Q121.464 13.9981 121.556 14.1714Q121.649 14.3447 121.724 14.5262Q121.799 14.7078 121.856 14.8958Q121.913 15.0839 121.952 15.2766Q121.99 15.4693 122.009 15.6649Q122.028 15.8604 122.028 16.0569ZM118.028 20.0569C115.819 20.0569 114.028 18.2661 114.028 16.0569C114.028 13.8478 115.819 12.0569 118.028 12.0569C120.238 12.0569 122.028 13.8478 122.028 16.0569C122.028 18.2661 120.238 20.0569 118.028 20.0569ZM118.028 36.0569C115.819 36.0569 114.028 34.2661 114.028 32.0569C114.028 29.8478 115.819 28.0569 118.028 28.0569C120.238 28.0569 122.028 29.8478 122.028 32.0569C122.028 34.2661 120.238 36.0569 118.028 36.0569Z">
</path>
<path     fill="#000000"  d="M150.029 16.0569L150.029 32.0569">
</path>
<path   fill="rgba(212, 48, 48, 1)"  d="M154.029 16.0569L154.029 32.0569Q154.029 32.2534 154.009 32.449Q153.99 32.6446 153.952 32.8373Q153.913 33.03 153.856 33.2181Q153.799 33.4061 153.724 33.5877Q153.649 33.7692 153.556 33.9425Q153.464 34.1158 153.354 34.2792Q153.245 34.4426 153.121 34.5945Q152.996 34.7464 152.857 34.8854Q152.718 35.0243 152.566 35.149Q152.414 35.2736 152.251 35.3828Q152.087 35.492 151.914 35.5846Q151.741 35.6772 151.559 35.7524Q151.378 35.8276 151.19 35.8847Q151.002 35.9417 150.809 35.9801Q150.616 36.0184 150.421 36.0377Q150.225 36.0569 150.029 36.0569Q149.832 36.0569 149.636 36.0377Q149.441 36.0184 149.248 35.9801Q149.055 35.9417 148.867 35.8847Q148.679 35.8276 148.498 35.7524Q148.316 35.6772 148.143 35.5846Q147.97 35.492 147.806 35.3828Q147.643 35.2736 147.491 35.149Q147.339 35.0243 147.2 34.8854Q147.061 34.7464 146.936 34.5945Q146.812 34.4426 146.703 34.2792Q146.593 34.1158 146.501 33.9425Q146.408 33.7692 146.333 33.5877Q146.258 33.4061 146.201 33.2181Q146.144 33.03 146.105 32.8373Q146.067 32.6446 146.048 32.449Q146.029 32.2534 146.029 32.0569L146.029 16.0569Q146.029 15.8604 146.048 15.6649Q146.067 15.4693 146.105 15.2766Q146.144 15.0839 146.201 14.8958Q146.258 14.7078 146.333 14.5262Q146.408 14.3447 146.501 14.1714Q146.593 13.9981 146.703 13.8347Q146.812 13.6713 146.936 13.5194Q147.061 13.3675 147.2 13.2285Q147.339 13.0896 147.491 12.9649Q147.643 12.8402 147.806 12.7311Q147.97 12.6219 148.143 12.5293Q148.316 12.4366 148.498 12.3614Q148.679 12.2862 148.867 12.2292Q149.055 12.1721 149.248 12.1338Q149.441 12.0955 149.636 12.0762Q149.832 12.0569 150.029 12.0569Q150.225 12.0569 150.421 12.0762Q150.616 12.0955 150.809 12.1338Q151.002 12.1721 151.19 12.2292Q151.378 12.2862 151.559 12.3614Q151.741 12.4366 151.914 12.5293Q152.087 12.6219 152.251 12.7311Q152.414 12.8402 152.566 12.9649Q152.718 13.0896 152.857 13.2285Q152.996 13.3675 153.121 13.5194Q153.245 13.6713 153.354 13.8347Q153.464 13.9981 153.556 14.1714Q153.649 14.3447 153.724 14.5262Q153.799 14.7078 153.856 14.8958Q153.913 15.0839 153.952 15.2766Q153.99 15.4693 154.009 15.6649Q154.029 15.8604 154.029 16.0569ZM150.029 20.0569C147.819 20.0569 146.029 18.2661 146.029 16.0569C146.029 13.8478 147.819 12.0569 150.029 12.0569C152.238 12.0569 154.029 13.8478 154.029 16.0569C154.029 18.2661 152.238 20.0569 150.029 20.0569ZM150.029 36.0569C147.819 36.0569 146.029 34.2661 146.029 32.0569C146.029 29.8478 147.819 28.0569 150.029 28.0569C152.238 28.0569 154.029 29.8478 154.029 32.0569C154.029 34.2661 152.238 36.0569 150.029 36.0569Z">
</path>
<path   fill="rgba(42, 46, 55, 1)"  d="M94.0284 60.0569L78.0285 60.0569Q77.832 60.0569 77.6364 60.0377Q77.4409 60.0184 77.2481 59.9801Q77.0554 59.9417 76.8674 59.8847Q76.6793 59.8277 76.4978 59.7525Q76.3162 59.6773 76.1429 59.5846Q75.9696 59.492 75.8062 59.3828Q75.6428 59.2737 75.4909 59.149Q75.339 59.0243 75.2001 58.8854Q75.0611 58.7464 74.9365 58.5945Q74.8118 58.4426 74.7026 58.2792Q74.5934 58.1158 74.5008 57.9425Q74.4082 57.7692 74.333 57.5877Q74.2578 57.4061 74.2007 57.2181Q74.1437 57.03 74.1053 56.8373Q74.067 56.6446 74.0478 56.449Q74.0285 56.2535 74.0285 56.0569Q74.0285 55.8604 74.0478 55.6649Q74.067 55.4693 74.1053 55.2766Q74.1437 55.0839 74.2007 54.8958Q74.2578 54.7078 74.333 54.5262Q74.4082 54.3447 74.5008 54.1714Q74.5934 53.9981 74.7026 53.8347Q74.8118 53.6713 74.9364 53.5194Q75.0611 53.3675 75.2001 53.2285Q75.339 53.0896 75.4909 52.9649Q75.6428 52.8402 75.8062 52.7311Q75.9696 52.6219 76.1429 52.5293Q76.3162 52.4366 76.4978 52.3614Q76.6793 52.2862 76.8674 52.2292Q77.0554 52.1721 77.2481 52.1338Q77.4409 52.0955 77.6364 52.0762Q77.832 52.0569 78.0285 52.0569L94.0284 52.0569Q94.2249 52.0569 94.4204 52.0762Q94.616 52.0955 94.8087 52.1338Q95.0014 52.1721 95.1895 52.2292Q95.3775 52.2862 95.5591 52.3614Q95.7406 52.4366 95.9139 52.5293Q96.0872 52.6219 96.2506 52.7311Q96.414 52.8402 96.5659 52.9649Q96.7178 53.0896 96.8568 53.2285Q96.9957 53.3675 97.1204 53.5194Q97.2451 53.6713 97.3542 53.8347Q97.4634 53.9981 97.556 54.1714Q97.6487 54.3447 97.7239 54.5262Q97.7991 54.7078 97.8561 54.8958Q97.9132 55.0839 97.9515 55.2766Q97.9898 55.4693 98.0091 55.6649Q98.0284 55.8604 98.0284 56.0569Q98.0284 56.2535 98.0091 56.449Q97.9898 56.6446 97.9515 56.8373Q97.9132 57.03 97.8561 57.2181Q97.7991 57.4061 97.7239 57.5877Q97.6487 57.7692 97.556 57.9425Q97.4634 58.1158 97.3542 58.2792Q97.2451 58.4426 97.1204 58.5945Q96.9957 58.7464 96.8568 58.8854Q96.7178 59.0243 96.5659 59.149Q96.414 59.2737 96.2506 59.3828Q96.0872 59.492 95.9139 59.5846Q95.7406 59.6773 95.5591 59.7525Q95.3775 59.8277 95.1895 59.8847Q95.0014 59.9417 94.8087 59.9801Q94.616 60.0184 94.4204 60.0377Q94.2249 60.0569 94.0284 60.0569ZM78.0285 60.0569C75.8194 60.0569 74.0285 58.2661 74.0285 56.0569C74.0285 53.8478 75.8194 52.0569 78.0285 52.0569C80.2376 52.0569 82.0285 53.8478 82.0285 56.0569C82.0285 58.2661 80.2376 60.0569 78.0285 60.0569ZM94.0284 60.0569C91.8192 60.0569 90.0284 58.2661 90.0284 56.0569C90.0284 53.8478 91.8192 52.0569 94.0284 52.0569C96.2375 52.0569 98.0284 53.8478 98.0284 56.0569C98.0284 58.2661 96.2375 60.0569 94.0284 60.0569Z">
</path>
<path   fill="rgba(33, 33, 33, 1.00)"  d="M126.028 60.0569L110.028 60.0569Q109.832 60.0569 109.636 60.0377Q109.441 60.0184 109.248 59.9801Q109.055 59.9417 108.867 59.8847Q108.679 59.8277 108.498 59.7525Q108.316 59.6773 108.143 59.5846Q107.97 59.492 107.806 59.3828Q107.643 59.2737 107.491 59.149Q107.339 59.0243 107.2 58.8854Q107.061 58.7464 106.936 58.5945Q106.812 58.4426 106.703 58.2792Q106.593 58.1158 106.501 57.9425Q106.408 57.7692 106.333 57.5877Q106.258 57.4061 106.201 57.2181Q106.144 57.03 106.105 56.8373Q106.067 56.6446 106.048 56.449Q106.028 56.2535 106.028 56.0569Q106.028 55.8604 106.048 55.6649Q106.067 55.4693 106.105 55.2766Q106.144 55.0839 106.201 54.8958Q106.258 54.7078 106.333 54.5262Q106.408 54.3447 106.501 54.1714Q106.593 53.9981 106.703 53.8347Q106.812 53.6713 106.936 53.5194Q107.061 53.3675 107.2 53.2285Q107.339 53.0896 107.491 52.9649Q107.643 52.8402 107.806 52.7311Q107.97 52.6219 108.143 52.5293Q108.316 52.4366 108.498 52.3614Q108.679 52.2862 108.867 52.2292Q109.055 52.1721 109.248 52.1338Q109.441 52.0955 109.636 52.0762Q109.832 52.0569 110.028 52.0569L126.028 52.0569Q126.225 52.0569 126.42 52.0762Q126.616 52.0955 126.809 52.1338Q127.001 52.1721 127.189 52.2292Q127.378 52.2862 127.559 52.3614Q127.741 52.4366 127.914 52.5293Q128.087 52.6219 128.251 52.7311Q128.414 52.8402 128.566 52.9649Q128.718 53.0896 128.857 53.2285Q128.996 53.3675 129.12 53.5194Q129.245 53.6713 129.354 53.8347Q129.463 53.9981 129.556 54.1714Q129.649 54.3447 129.724 54.5262Q129.799 54.7078 129.856 54.8958Q129.913 55.0839 129.952 55.2766Q129.99 55.4693 130.009 55.6649Q130.028 55.8604 130.028 56.0569Q130.028 56.2535 130.009 56.449Q129.99 56.6446 129.952 56.8373Q129.913 57.03 129.856 57.2181Q129.799 57.4061 129.724 57.5877Q129.649 57.7692 129.556 57.9425Q129.463 58.1158 129.354 58.2792Q129.245 58.4426 129.12 58.5945Q128.996 58.7464 128.857 58.8854Q128.718 59.0243 128.566 59.149Q128.414 59.2737 128.251 59.3828Q128.087 59.492 127.914 59.5846Q127.741 59.6773 127.559 59.7525Q127.378 59.8277 127.19 59.8847Q127.001 59.9417 126.809 59.9801Q126.616 60.0184 126.42 60.0377Q126.225 60.0569 126.028 60.0569ZM110.028 60.0569C107.819 60.0569 106.028 58.2661 106.028 56.0569C106.028 53.8478 107.819 52.0569 110.028 52.0569C112.238 52.0569 114.028 53.8478 114.028 56.0569C114.028 58.2661 112.238 60.0569 110.028 60.0569ZM126.028 60.0569C123.819 60.0569 122.028 58.2661 122.028 56.0569C122.028 53.8478 123.819 52.0569 126.028 52.0569C128.238 52.0569 130.028 53.8478 130.028 56.0569C130.028 58.2661 128.238 60.0569 126.028 60.0569Z">
</path>
<path     fill="#000000"  d="M158.029 56.0569L142.028 56.0569">
</path>
<path   fill="rgba(212, 48, 48, 1)"  d="M158.029 60.0569L142.028 60.0569Q141.832 60.0569 141.636 60.0377Q141.441 60.0184 141.248 59.9801Q141.055 59.9417 140.867 59.8847Q140.679 59.8277 140.498 59.7525Q140.316 59.6773 140.143 59.5846Q139.97 59.492 139.806 59.3828Q139.643 59.2737 139.491 59.149Q139.339 59.0243 139.2 58.8854Q139.061 58.7464 138.936 58.5945Q138.812 58.4426 138.703 58.2792Q138.593 58.1158 138.501 57.9425Q138.408 57.7692 138.333 57.5877Q138.258 57.4061 138.201 57.2181Q138.144 57.03 138.105 56.8373Q138.067 56.6446 138.048 56.449Q138.028 56.2535 138.028 56.0569Q138.028 55.8604 138.048 55.6649Q138.067 55.4693 138.105 55.2766Q138.144 55.0839 138.201 54.8958Q138.258 54.7078 138.333 54.5262Q138.408 54.3447 138.501 54.1714Q138.593 53.9981 138.703 53.8347Q138.812 53.6713 138.936 53.5194Q139.061 53.3675 139.2 53.2285Q139.339 53.0896 139.491 52.9649Q139.643 52.8402 139.806 52.7311Q139.97 52.6219 140.143 52.5293Q140.316 52.4366 140.498 52.3614Q140.679 52.2862 140.867 52.2292Q141.055 52.1721 141.248 52.1338Q141.441 52.0955 141.636 52.0762Q141.832 52.0569 142.028 52.0569L158.029 52.0569Q158.225 52.0569 158.421 52.0762Q158.616 52.0955 158.809 52.1338Q159.002 52.1721 159.19 52.2292Q159.378 52.2862 159.559 52.3614Q159.741 52.4366 159.914 52.5293Q160.088 52.6219 160.251 52.7311Q160.414 52.8402 160.566 52.9649Q160.718 53.0896 160.857 53.2285Q160.996 53.3675 161.121 53.5194Q161.245 53.6713 161.355 53.8347Q161.464 53.9981 161.556 54.1714Q161.649 54.3447 161.724 54.5262Q161.799 54.7078 161.857 54.8958Q161.914 55.0839 161.952 55.2766Q161.99 55.4693 162.009 55.6649Q162.029 55.8604 162.029 56.0569Q162.029 56.2535 162.009 56.449Q161.99 56.6446 161.952 56.8373Q161.914 57.03 161.857 57.2181Q161.799 57.4061 161.724 57.5877Q161.649 57.7692 161.556 57.9425Q161.464 58.1158 161.355 58.2792Q161.245 58.4426 161.121 58.5945Q160.996 58.7464 160.857 58.8854Q160.718 59.0243 160.566 59.149Q160.414 59.2737 160.251 59.3828Q160.088 59.492 159.914 59.5846Q159.741 59.6773 159.559 59.7525Q159.378 59.8277 159.19 59.8847Q159.002 59.9417 158.809 59.9801Q158.616 60.0184 158.421 60.0377Q158.225 60.0569 158.029 60.0569ZM142.028 60.0569C139.819 60.0569 138.028 58.2661 138.028 56.0569C138.028 53.8478 139.819 52.0569 142.028 52.0569C144.238 52.0569 146.028 53.8478 146.028 56.0569C146.028 58.2661 144.238 60.0569 142.028 60.0569ZM158.029 60.0569C155.82 60.0569 154.029 58.2661 154.029 56.0569C154.029 53.8478 155.82 52.0569 158.029 52.0569C160.238 52.0569 162.029 53.8478 162.029 56.0569C162.029 58.2661 160.238 60.0569 158.029 60.0569Z">
</path>
<path     fill="#000000"  d="M22.0285 80.0511L22.0285 80.0571C20.9057 80.0551 19.8302 80.2796 18.8019 80.7307C18.5621 80.8362 18.3281 80.9534 18.0998 81.0822C17.8715 81.2107 17.6501 81.3501 17.4356 81.5005C17.221 81.651 17.0143 81.8115 16.8155 81.9821C16.6167 82.1529 16.4267 82.3329 16.2457 82.5222C16.0645 82.7116 15.8931 82.9094 15.7314 83.1155C15.5698 83.3219 15.4186 83.5356 15.2779 83.7565C15.1372 83.9775 15.0077 84.2049 14.8894 84.4388C14.7711 84.6726 14.6645 84.9116 14.5696 85.1557C14.4748 85.4001 14.3921 85.6485 14.3216 85.9007C14.2512 86.1531 14.1933 86.4084 14.1479 86.6664C14.1025 86.9244 14.0699 87.1841 14.05 87.4454C14.0302 87.7066 14.0232 87.9683 14.029 88.2304C14.0349 88.4922 14.0535 88.7532 14.085 89.0135C14.1165 89.2735 14.1607 89.5314 14.2176 89.7872C14.2744 90.0429 14.3436 90.2954 14.4253 90.5446C14.5069 90.7935 14.6006 91.0378 14.7062 91.2774C14.862 91.6304 15.0424 91.9705 15.2474 92.2975C15.4524 92.6243 15.6799 92.9348 15.9298 93.2288C16.1798 93.5228 16.4495 93.7972 16.7392 94.052C17.0288 94.307 17.3353 94.5398 17.6586 94.7504C17.9819 94.9611 18.3187 95.1473 18.669 95.3091C19.0192 95.4711 19.3793 95.6069 19.7492 95.7165C20.1191 95.8264 20.495 95.909 20.8769 95.9644C21.2588 96.0196 21.6426 96.0472 22.0285 96.0472L22.0285 96.051L22.1477 96.051L38.0285 96.051L38.0285 96.0472C39.1506 96.0487 40.2255 95.8241 41.2531 95.3733L41.2551 95.3714C41.4948 95.2656 41.7288 95.1484 41.9571 95.0199C42.1853 94.8912 42.4067 94.7516 42.6212 94.6011C42.8357 94.4507 43.0424 94.2901 43.2411 94.1193C43.4398 93.9487 43.6297 93.7686 43.8108 93.5792C43.9918 93.3899 44.1632 93.1921 44.3249 92.9858C44.4864 92.7797 44.6375 92.566 44.7781 92.3448C44.9187 92.1238 45.0482 91.8964 45.1666 91.6626C45.2848 91.4287 45.3914 91.1897 45.4864 90.9456C45.5811 90.7014 45.6637 90.4531 45.7339 90.2006C45.8045 89.9484 45.8625 89.6932 45.9078 89.4349C45.9532 89.1769 45.9857 88.9172 46.0053 88.6559C46.0252 88.3949 46.0323 88.1334 46.0265 87.8713C46.0204 87.6095 46.0017 87.3485 45.9702 87.0882C45.9386 86.8282 45.8944 86.5703 45.8375 86.3145C45.7808 86.0588 45.7115 85.8064 45.6296 85.5575C45.548 85.3085 45.4544 85.0641 45.3488 84.8243C45.1928 84.4715 45.0124 84.1317 44.8076 83.8049C44.6025 83.4784 44.3751 83.1681 44.1254 82.874C43.8754 82.5802 43.6056 82.306 43.316 82.0512C43.0264 81.7965 42.7201 81.5638 42.3969 81.3531C42.0736 81.1428 41.7369 80.9567 41.3868 80.7949C41.0367 80.6329 40.6767 80.4971 40.3069 80.3875C39.9371 80.2776 39.5614 80.1951 39.1797 80.1399C38.798 80.0845 38.4142 80.0568 38.0285 80.0568L38.0285 80.0507L22.0285 80.0511Z">
</path>
<path   fill="rgba(255, 255, 255, 1.00)"  d="M23.0285 80.0511L23.0285 80.0571C23.0285 80.6101 22.5797 81.0581 22.0267 81.0571C23.0285 80.6101 22.5797 81.0581 22.0267 81.0571Q20.5531 81.0545 19.2036 81.6464Q18.8905 81.7843 18.5911 81.9532Q18.2911 82.122 18.0096 82.3194Q17.7278 82.5169 17.4667 82.741Q17.206 82.965 16.9681 83.2135Q16.7306 83.462 16.5182 83.7328Q16.3063 84.0033 16.1215 84.2936Q15.9368 84.5836 15.7817 84.8903Q15.6262 85.1974 15.5018 85.5178Q15.3773 85.8386 15.2848 86.1697Q15.1923 86.5009 15.1328 86.8396Q15.0733 87.1782 15.0472 87.5212Q15.0211 87.8641 15.0288 88.2081Q15.0365 88.5516 15.0778 88.8934Q15.1191 89.2345 15.1937 89.5702Q15.2684 89.906 15.3756 90.2332Q15.4826 90.5596 15.6212 90.874Q15.8256 91.3371 16.0947 91.7664Q16.3636 92.1951 16.6918 92.5812Q17.0197 92.9669 17.3996 93.3011Q17.7801 93.6361 18.2045 93.9126Q18.6288 94.189 19.0882 94.4012Q19.5481 94.6139 20.0333 94.7577Q20.5192 94.902 21.0206 94.9748Q21.5216 95.0472 22.0285 95.0472C22.5808 95.0472 23.0285 95.4949 23.0285 96.0472L23.0285 96.051L22.0285 96.051L22.0285 95.051L22.1477 95.051L38.0285 95.051L38.0285 96.051L37.0285 96.051L37.0285 96.0472C37.0285 95.4944 37.4771 95.0464 38.0299 95.0472C37.0285 95.4944 37.4771 95.0464 38.0299 95.0472Q39.5027 95.0492 40.8514 94.4575L41.2531 95.3733L40.5598 94.6527L40.5618 94.6508C40.6461 94.5696 40.7441 94.5039 40.8513 94.4566C40.6461 94.5696 40.7441 94.5039 40.8513 94.4566Q41.1664 94.3175 41.4665 94.1485Q41.7657 93.9797 42.0471 93.7824Q42.3284 93.5851 42.5893 93.3609Q42.8501 93.137 43.0879 92.8882Q43.3259 92.6394 43.5379 92.3688Q43.7496 92.0987 43.9341 91.8084Q44.1189 91.5179 44.2746 91.2107Q44.4295 90.904 44.5545 90.5829Q44.6785 90.2633 44.7706 89.9324Q44.8634 89.6004 44.9229 89.2619Q44.9824 88.9235 45.0081 88.5809Q45.0343 88.2372 45.0267 87.8934Q45.0188 87.5506 44.9774 87.2083Q44.9361 86.8674 44.8614 86.5318Q44.7871 86.1964 44.6797 85.8699Q44.5723 85.5424 44.4335 85.227Q44.2293 84.7652 43.9603 84.336Q43.6913 83.9078 43.3631 83.5213Q43.0356 83.1364 42.6555 82.802Q42.2752 82.4674 41.8509 82.1909Q41.427 81.9151 40.9674 81.7027Q40.5076 81.49 40.0228 81.3462Q39.5372 81.202 39.0366 81.1296Q38.5348 81.0568 38.0285 81.0568C37.4762 81.0568 37.0285 80.6091 37.0285 80.0568L37.0285 80.0507L38.0285 80.0507L38.0285 81.0507L22.0285 81.0511L22.0285 80.0511L23.0285 80.0511ZM21.0285 80.0511C21.0285 79.4988 21.4762 79.0511 22.0285 79.0511L38.0285 79.0507C38.5808 79.0507 39.0285 79.4984 39.0285 80.0507L39.0285 80.0568L38.0285 80.0568L38.0285 79.0568Q38.6793 79.0568 39.3228 79.1502Q39.9673 79.2434 40.5911 79.4287Q41.2155 79.6138 41.8062 79.8871Q42.397 80.1601 42.9428 80.5154Q43.4879 80.8705 43.9766 81.3004Q44.4651 81.7303 44.8877 82.2268Q45.3086 82.7226 45.6549 83.2738Q46.0003 83.8249 46.2641 84.4215Q46.4423 84.8263 46.5796 85.2451Q46.7181 85.6663 46.8136 86.0973Q46.9097 86.529 46.9629 86.9681Q47.016 87.4071 47.0262 87.8492Q47.036 88.2912 47.0025 88.731Q46.9693 89.1722 46.8927 89.6079Q46.8162 90.0437 46.6973 90.4689Q46.5787 90.8947 46.4183 91.3083Q46.2583 91.7195 46.0587 92.1144Q45.8589 92.5089 45.6221 92.8812Q45.3847 93.2547 45.112 93.6027Q44.8393 93.9506 44.5337 94.2701Q44.2277 94.5903 43.8929 94.8776Q43.5574 95.1661 43.1953 95.4199Q42.8338 95.6734 42.4477 95.8913Q42.063 96.1079 41.6589 96.2862L41.2551 95.3714L41.6589 96.2862L41.2551 95.3714L41.9484 96.092L41.9465 96.0939C41.8615 96.1757 41.7628 96.2417 41.6548 96.2891Q39.9207 97.0497 38.0272 97.0472L38.0285 96.0472L38.0272 97.0472L38.0285 96.0472L39.0285 96.0472L39.0285 96.051C39.0285 96.6033 38.5808 97.051 38.0285 97.051L22.1477 97.051L22.0285 97.051C21.4762 97.051 21.0285 96.6033 21.0285 96.051L21.0285 96.0472L22.0285 96.0472L22.0285 97.0472Q21.3779 97.0472 20.7332 96.954Q20.0885 96.8604 19.4652 96.6753Q18.8404 96.4902 18.2497 96.2169Q17.6586 95.9439 17.1127 95.5883Q16.5671 95.2328 16.0788 94.8029Q15.5898 94.3728 15.1679 93.8764Q14.7462 93.3803 14.4001 92.8286Q14.0543 92.2769 13.7912 91.6809Q13.6129 91.2764 13.475 90.8559Q13.3373 90.4356 13.2414 90.0041Q13.1454 89.5725 13.0923 89.1336Q13.0391 88.6944 13.0293 88.2527Q13.0194 87.8105 13.0529 87.3695Q13.0865 86.9286 13.163 86.4932Q13.2396 86.0579 13.3585 85.6316Q13.4774 85.2062 13.6375 84.7936Q13.7975 84.3818 13.9971 83.9873Q14.1968 83.5927 14.4344 83.2195Q14.6716 82.8468 14.9447 82.4983Q15.2174 82.1507 15.5232 81.8308Q15.8285 81.5117 16.1643 81.2231Q16.4997 80.9354 16.8615 80.6817Q17.224 80.4276 17.6085 80.2112Q17.9941 79.9937 18.4002 79.8149Q20.1354 79.0537 22.0303 79.0571L22.0285 80.0571L22.0303 79.0571L22.0285 80.0571L21.0285 80.0571L21.0285 80.0511Z">
</path>
<path     fill="#D43030"  d="M24.015 92.6275C23.8652 92.6935 23.7124 92.7519 23.5568 92.8029C23.4012 92.854 23.2435 92.8972 23.0836 92.9325C22.9238 92.968 22.7626 92.9957 22.6 93.0156C22.4374 93.0353 22.2743 93.0469 22.1106 93.0504C21.9469 93.0542 21.7834 93.0498 21.6201 93.0372C21.4568 93.0248 21.2945 93.0044 21.1333 92.976C20.972 92.9477 20.8125 92.9116 20.6548 92.8675C20.4971 92.8234 20.3419 92.7718 20.1892 92.7125C20.0366 92.6533 19.8872 92.5867 19.7411 92.5126C19.595 92.4388 19.4529 92.3579 19.3147 92.2699C19.1766 92.182 19.0431 92.0875 18.9142 91.9865C18.7853 91.8855 18.6617 91.7783 18.5434 91.6652C18.425 91.5521 18.3125 91.4334 18.2059 91.3092C18.0992 91.185 17.9988 91.0557 17.9048 90.9214C17.8109 90.7873 17.7237 90.649 17.6433 90.5064C17.5629 90.3638 17.4897 90.2175 17.4237 90.0676C17.3576 89.9177 17.2991 89.765 17.2481 89.6095C17.1971 89.4538 17.1538 89.2961 17.1183 89.1363C17.0828 88.9766 17.0552 88.8153 17.0355 88.6526C17.0158 88.49 17.0041 88.327 17.0004 88.1635C16.9968 87.9997 17.0012 87.8362 17.0136 87.6729C17.026 87.5096 17.0464 87.3474 17.0747 87.1861C17.1031 87.0248 17.1393 86.8653 17.1833 86.7076C17.2273 86.5499 17.279 86.3947 17.3382 86.242C17.3975 86.0893 17.4641 85.9399 17.538 85.7937C17.612 85.6476 17.6929 85.5055 17.7808 85.3674C17.8687 85.2293 17.9632 85.0958 18.0643 84.9668C18.1653 84.838 18.2724 84.7144 18.3856 84.596C18.4987 84.4776 18.6174 84.3651 18.7417 84.2585C18.8659 84.1519 18.995 84.0516 19.1291 83.9576C19.2632 83.8636 19.4016 83.7763 19.5443 83.6957C19.6869 83.6153 19.8331 83.5421 19.983 83.4761C20.1328 83.4101 20.2856 83.3516 20.4412 83.3007C20.5968 83.2496 20.7545 83.2063 20.9143 83.1707C21.0742 83.1352 21.2354 83.1076 21.398 83.088C21.5605 83.0683 21.7236 83.0566 21.8874 83.0528C22.0511 83.0493 22.2146 83.0537 22.3778 83.066C22.5411 83.0784 22.7034 83.0988 22.8647 83.1273C23.026 83.1555 23.1855 83.1916 23.3432 83.2357C23.5009 83.2798 23.6561 83.3315 23.8088 83.3907C23.9614 83.4499 24.1108 83.5164 24.2569 83.5903C24.403 83.6643 24.5451 83.7453 24.6833 83.8333C24.8215 83.9212 24.955 84.0157 25.0838 84.1167C25.2127 84.2178 25.3363 84.3249 25.4547 84.438C25.573 84.5511 25.6856 84.6698 25.7923 84.794C25.899 84.9183 25.9993 85.0474 26.0933 85.1814C26.1873 85.3155 26.2745 85.4538 26.3549 85.5964C26.4353 85.739 26.5086 85.8853 26.5746 86.0352C26.6406 86.1852 26.6992 86.3379 26.7502 86.4933C26.8012 86.649 26.8445 86.8068 26.88 86.9665C26.9156 87.1265 26.9432 87.2878 26.9629 87.4503C26.9826 87.6128 26.9943 87.776 26.998 87.9397C27.0016 88.1033 26.9973 88.2667 26.9849 88.4299C26.9725 88.5932 26.9521 88.7555 26.9238 88.9167C26.8954 89.0782 26.8593 89.2379 26.8153 89.3956C26.7712 89.5531 26.7196 89.7082 26.6604 89.8609C26.6011 90.0136 26.5345 90.163 26.4606 90.3091C26.3867 90.4553 26.3057 90.5974 26.2178 90.7355C26.13 90.8738 26.0355 91.0073 25.9345 91.1361C25.8335 91.2651 25.7264 91.3887 25.6132 91.5069C25.5 91.6253 25.3814 91.7379 25.2571 91.8447C25.1329 91.9513 25.0038 92.0516 24.8697 92.1456C24.7356 92.2396 24.5973 92.3268 24.4546 92.4071C24.312 92.4875 24.1657 92.5609 24.0159 92.6271">
</path>
<path     fill="#000000"  d="M62.0279 80.0551L62.0279 80.0612C60.9049 80.0594 59.8294 80.284 58.8014 80.735C58.5615 80.8406 58.3274 80.9577 58.0991 81.0862C57.8708 81.2149 57.6493 81.3545 57.4347 81.5049C57.2202 81.6554 57.0136 81.8159 56.8148 81.9865C56.616 82.157 56.426 82.3371 56.2449 82.5266C56.0637 82.716 55.8924 82.9138 55.7309 83.1199C55.5691 83.326 55.4179 83.5397 55.2773 83.7609C55.1365 83.9819 55.007 84.2093 54.8888 84.4431C54.7704 84.6767 54.6638 84.9157 54.569 85.1601C54.474 85.4043 54.3914 85.6526 54.3211 85.9051C54.2505 86.1573 54.1926 86.4125 54.1472 86.6708C54.1019 86.9288 54.0693 87.1885 54.0493 87.4498C54.0294 87.711 54.0224 87.9726 54.0282 88.2344C54.034 88.4964 54.0526 88.7575 54.0841 89.0175C54.1156 89.2778 54.1598 89.5358 54.2168 89.7916C54.2737 90.0473 54.343 90.2996 54.4247 90.5486C54.5063 90.7976 54.5999 91.0419 54.7055 91.2818C54.8612 91.6348 55.0416 91.9747 55.2467 92.3015C55.4518 92.6286 55.6792 92.939 55.9289 93.2328C56.1789 93.5269 56.4487 93.8014 56.7385 94.0564C57.028 94.3114 57.3344 94.5442 57.6577 94.7548C57.9812 94.9652 58.3181 95.1514 58.6683 95.3134C59.0185 95.4752 59.3786 95.611 59.7485 95.7209C60.1184 95.8307 60.4943 95.9133 60.8763 95.9684C61.258 96.0239 61.6419 96.0515 62.0279 96.0512L62.0279 96.055L62.147 96.055L78.0278 96.055L78.0278 96.0512C79.1498 96.0527 80.2247 95.8282 81.2525 95.3777L81.2544 95.3754C81.494 95.2699 81.728 95.1527 81.9563 95.0239C82.1845 94.8954 82.4059 94.756 82.6203 94.6055C82.835 94.4551 83.0417 94.2945 83.2405 94.1236C83.4391 93.9528 83.629 93.7728 83.8101 93.5836C83.991 93.3941 84.1624 93.1963 84.3241 92.9902C84.4856 92.7838 84.6367 92.5702 84.7773 92.3492C84.9182 92.1282 85.0476 91.9008 85.1658 91.667C85.284 91.4331 85.3906 91.1941 85.4856 90.95C85.5803 90.7056 85.6628 90.4572 85.7331 90.205C85.8037 89.9526 85.8616 89.6973 85.907 89.4393C85.9523 89.1813 85.9849 88.9216 86.0045 88.6603C86.0244 88.3991 86.0315 88.1375 86.0257 87.8757C86.0196 87.6137 86.0008 87.3526 85.9694 87.0926C85.9378 86.8326 85.8936 86.5747 85.8367 86.3189C85.78 86.0632 85.7108 85.8107 85.6292 85.5615C85.5476 85.3126 85.4538 85.0683 85.348 84.8287C85.1923 84.4759 85.0119 84.1361 84.8068 83.8093C84.6017 83.4825 84.3742 83.1722 84.1246 82.8784C83.8746 82.5846 83.6049 82.3104 83.3154 82.0556C83.0259 81.8006 82.7195 81.5679 82.3962 81.3575C82.0729 81.1469 81.7361 80.9607 81.3859 80.7989C81.0359 80.6372 80.676 80.5014 80.3061 80.3915C79.9365 80.2819 79.5608 80.1994 79.1791 80.1439C78.7973 80.0885 78.4136 80.0609 78.0278 80.0612L78.0278 80.0551L62.0279 80.0551Z">
</path>
<path   fill="rgba(255, 255, 255, 1.00)"  d="M63.0279 80.0551L63.0279 80.0612C63.0279 80.6141 62.5793 81.062 62.0264 81.0612C63.0279 80.6141 62.5793 81.062 62.0264 81.0612Q60.5524 81.0588 59.2031 81.6508Q58.8893 81.7889 58.5897 81.9576Q58.2904 82.1264 58.0085 82.3239Q57.7272 82.5213 57.466 82.7454Q57.2053 82.9691 56.9677 83.2176Q56.73 83.4662 56.518 83.7367Q56.3056 84.0074 56.1213 84.2973Q55.936 84.5881 55.7813 84.8942Q55.6255 85.2014 55.5014 85.5215Q55.3766 85.8425 55.2845 86.1733Q55.1916 86.5051 55.1322 86.8438Q55.0726 87.1827 55.0465 87.5257Q55.0203 87.8686 55.0279 88.2123Q55.0355 88.5561 55.0769 88.8973Q55.1182 89.2387 55.1929 89.5742Q55.2676 89.91 55.3749 90.237Q55.482 90.5638 55.6208 90.879Q55.8246 91.3412 56.0937 91.77Q56.3632 92.1997 56.6909 92.5852Q57.0188 92.971 57.3991 93.3057Q57.7794 93.6406 58.2036 93.917Q58.6278 94.1929 59.0882 94.4059Q59.5473 94.618 60.0332 94.7623Q60.5183 94.9063 61.0193 94.9787Q61.5208 95.0516 62.0273 95.0512C62.5798 95.0508 63.0279 95.4987 63.0279 96.0512L63.0279 96.055L62.0279 96.055L62.0279 95.055L62.147 95.055L78.0278 95.055L78.0278 96.055L77.0278 96.055L77.0278 96.0512C77.0278 95.4984 77.4763 95.0505 78.0292 95.0512C77.0278 95.4984 77.4763 95.0505 78.0292 95.0512Q79.502 95.0532 80.851 94.4618L81.2525 95.3777L80.4843 94.7374L80.4862 94.7352C80.5851 94.6166 80.71 94.5225 80.8512 94.4603C80.5851 94.6166 80.71 94.5225 80.8512 94.4603Q81.1655 94.3219 81.465 94.1529Q81.7648 93.9842 82.0461 93.7869Q82.328 93.5893 82.5888 93.3652Q82.8497 93.1407 83.0877 92.8921Q83.3245 92.6441 83.5375 92.3727Q83.749 92.1025 83.9336 91.8124Q84.1185 91.5223 84.2733 91.2159Q84.4288 90.9084 84.5536 90.5874Q84.6775 90.2678 84.7699 89.9365Q84.8627 89.6043 84.9221 89.2662Q84.9816 88.9279 85.0073 88.5853Q85.0335 88.2418 85.0259 87.8978Q85.018 87.5547 84.9766 87.2128Q84.9353 86.8718 84.8606 86.5362Q84.786 86.1998 84.6789 85.8728Q84.572 85.5468 84.4332 85.2327Q84.2288 84.7696 83.9598 84.3409Q83.6905 83.9119 83.3626 83.526Q83.0349 83.1408 82.6548 82.8064Q82.2747 82.4716 81.8507 82.1957Q81.4263 81.9191 80.9666 81.7068Q80.507 81.4943 80.0214 81.3501Q79.5365 81.2063 79.0354 81.1336Q78.5346 81.0608 78.0285 81.0612C77.4759 81.0615 77.0278 80.6137 77.0278 80.0612L77.0278 80.0551L78.0278 80.0551L78.0278 81.0551L62.0279 81.0551L62.0279 80.0551L63.0279 80.0551ZM61.0279 80.0551C61.0279 79.5028 61.4757 79.0551 62.0279 79.0551L78.0278 79.0551C78.5801 79.0551 79.0278 79.5028 79.0278 80.0551L79.0278 80.0612L78.0278 80.0612L78.0272 79.0612Q78.6784 79.0607 79.3228 79.1543Q79.9668 79.2478 80.5908 79.4329Q81.2149 79.6182 81.8052 79.8911Q82.3966 80.1642 82.9417 80.5194Q83.4876 80.8747 83.976 81.3049Q84.4645 81.7348 84.8866 82.2309Q85.3078 82.7265 85.6538 83.2777Q85.9999 83.8293 86.2628 84.4247Q86.4415 84.8295 86.5795 85.2502Q86.7173 85.6708 86.8128 86.1017Q86.9089 86.5334 86.9621 86.9724Q87.0152 87.411 87.0254 87.8536Q87.0352 88.2958 87.0017 88.7354Q86.9685 89.1766 86.8919 89.6124Q86.8154 90.0476 86.6964 90.4735Q86.5777 90.8993 86.4175 91.3125Q86.2575 91.7239 86.0583 92.118Q85.8585 92.5133 85.621 92.886Q85.3841 93.2583 85.1108 93.6076Q84.8379 93.9552 84.5325 94.2751Q84.2276 94.5936 83.8923 94.8821Q83.5566 95.1705 83.1946 95.4242Q82.8322 95.6784 82.4476 95.8949Q82.0621 96.1123 81.6575 96.2906L81.2544 95.3754L81.6575 96.2906L81.2544 95.3754L82.0226 96.0157L82.0207 96.0179C81.9214 96.137 81.7959 96.2314 81.654 96.2936Q79.9198 97.0538 78.0265 97.0512L78.0278 96.0512L78.0265 97.0512L78.0278 96.0512L79.0278 96.0512L79.0278 96.055C79.0278 96.6073 78.5801 97.055 78.0278 97.055L62.147 97.055L62.0279 97.055C61.4757 97.055 61.0279 96.6073 61.0279 96.055L61.0279 96.0512L62.0279 96.0512L62.0286 97.0512Q61.377 97.0517 60.7333 96.9582Q60.0883 96.865 59.4638 96.6795Q58.8396 96.4941 58.2485 96.221Q57.6578 95.9478 57.1118 95.5927Q56.5661 95.2372 56.0778 94.8071Q55.5888 94.3767 55.167 93.8804Q54.7457 93.3848 54.3997 92.8331Q54.0534 92.2813 53.7902 91.6846Q53.6121 91.2799 53.4744 90.8602Q53.3367 90.4402 53.2407 90.0089Q53.1445 89.577 53.0914 89.1377Q53.0382 88.6988 53.0284 88.2565Q53.0187 87.8147 53.0522 87.3738Q53.0858 86.933 53.1623 86.4978Q53.2389 86.0616 53.3577 85.6368Q53.4766 85.2101 53.6366 84.7987Q53.7967 84.3858 53.9963 83.9921Q54.1959 83.5971 54.4333 83.2245Q54.6709 82.8508 54.9437 82.5031Q55.2164 82.1552 55.5221 81.8355Q55.828 81.5155 56.1636 81.2275Q56.4988 80.94 56.8608 80.686Q57.2228 80.4324 57.6086 80.2148Q57.9938 79.9979 58.3996 79.8193Q60.1344 79.0582 62.0295 79.0612L62.0279 80.0612L62.0295 79.0612L62.0279 80.0612L61.0279 80.0612L61.0279 80.0551Z">
</path>
<path     fill="#484848"  d="M64.0141 92.6315C63.8642 92.6976 63.7115 92.756 63.556 92.8069C63.4003 92.858 63.2426 92.9014 63.0828 92.9369C62.9229 92.9724 62.7616 93 62.5991 93.0197C62.4365 93.0393 62.2734 93.0509 62.1096 93.0545C61.9459 93.0582 61.7823 93.054 61.619 93.0416C61.4558 93.029 61.2935 93.0086 61.1322 92.9804C60.971 92.9519 60.8115 92.9156 60.6538 92.8715C60.496 92.8277 60.3409 92.776 60.1885 92.7166C60.0358 92.6573 59.8864 92.5909 59.7402 92.517C59.5941 92.4429 59.452 92.3619 59.3139 92.274C59.1758 92.1861 59.0423 92.0916 58.9133 91.9905C58.7845 91.8895 58.6609 91.7824 58.5425 91.6693C58.4241 91.5561 58.3116 91.4375 58.205 91.3132C58.0984 91.189 57.9981 91.0599 57.9041 90.9258C57.8099 90.7918 57.7226 90.6533 57.6422 90.5105C57.5618 90.3679 57.4886 90.2217 57.4226 90.072C57.3566 89.9221 57.2982 89.7693 57.2473 89.6136C57.1961 89.4581 57.1528 89.3004 57.1172 89.1404C57.0817 88.9806 57.0541 88.8195 57.0345 88.657C57.0148 88.4945 57.0032 88.3313 56.9997 88.1675C56.9959 88.0038 57.0002 87.8402 57.0126 87.6769C57.0252 87.5137 57.0456 87.3514 57.0738 87.1901C57.1023 87.0289 57.1384 86.8694 57.1823 86.7117C57.2263 86.5539 57.278 86.3987 57.3372 86.246C57.3967 86.0933 57.4633 85.944 57.5372 85.7981C57.611 85.652 57.6919 85.5098 57.7798 85.3714C57.8677 85.2334 57.9622 85.0999 58.0633 84.9712C58.1643 84.8422 58.2714 84.7185 58.3845 84.6C58.4977 84.4819 58.6165 84.3694 58.7409 84.2625C58.8652 84.1559 58.9943 84.0557 59.1283 83.9617C59.2624 83.8677 59.4007 83.7805 59.5433 83.7001C59.6859 83.6198 59.8322 83.5466 59.9821 83.4805C60.132 83.4145 60.2847 83.3559 60.4402 83.3048C60.5959 83.2539 60.7537 83.2107 60.9134 83.1752C61.0732 83.1396 61.2344 83.1119 61.3972 83.092C61.5597 83.0724 61.7229 83.0608 61.8866 83.0572C62.0502 83.0535 62.2136 83.0577 62.3768 83.0701C62.5401 83.0827 62.7024 83.1031 62.8636 83.1313C63.0249 83.1598 63.1844 83.1959 63.3421 83.2398C63.4999 83.2839 63.6551 83.3355 63.8078 83.3947C63.9605 83.454 64.1099 83.5206 64.256 83.5947C64.4022 83.6685 64.5443 83.7494 64.6823 83.8373C64.8204 83.9253 64.954 84.0198 65.083 84.1208C65.2117 84.2218 65.3353 84.3289 65.4537 84.4421C65.5722 84.5552 65.6847 84.6739 65.7913 84.7981C65.8981 84.9223 65.9985 85.0514 66.0925 85.1855C66.1865 85.3195 66.2736 85.458 66.354 85.6009C66.4344 85.7435 66.5076 85.8896 66.5736 86.0393C66.6396 86.1892 66.6982 86.342 66.7494 86.4977C66.8003 86.6532 66.8435 86.8109 66.879 86.9709C66.9145 87.1307 66.9423 87.2918 66.9622 87.4543C66.9818 87.6169 66.9934 87.78 66.9969 87.9438C67.0007 88.1076 66.9964 88.2711 66.9841 88.4344C66.9717 88.5976 66.9513 88.7599 66.9229 88.9212C66.8946 89.0824 66.8585 89.2419 66.8144 89.3997C66.7703 89.5574 66.7186 89.7126 66.6594 89.8653C66.6002 90.018 66.5337 90.1673 66.4599 90.3132C66.3858 90.4593 66.3048 90.6015 66.2168 90.7399C66.1289 90.878 66.0345 91.0114 65.9337 91.1401C65.8327 91.2691 65.7256 91.3929 65.6125 91.5113C65.4991 91.6295 65.3803 91.742 65.2561 91.8488C65.1319 91.9554 65.0027 92.0557 64.8687 92.1496C64.7346 92.2439 64.5963 92.3312 64.4537 92.4116C64.3111 92.492 64.1648 92.5652 64.0149 92.6311">
</path>
<rect  x="62.027671813964844" y="83.05877685546875" width="15.999999198494022" height="9.999999924255615"    fill="#484848" >
</rect>
<path     fill="#D43030"  d="M80.0139 92.6315C79.8643 92.6976 79.7116 92.756 79.5559 92.8069C79.4001 92.858 79.2424 92.9014 79.0827 92.9369C78.9229 92.9724 78.7616 93 78.5989 93.0197C78.4364 93.0393 78.2733 93.0509 78.1098 93.0545C77.946 93.0582 77.7825 93.0538 77.6192 93.0412C77.456 93.0289 77.2937 93.0086 77.1324 92.9804C76.9712 92.9519 76.8117 92.9156 76.6539 92.8715C76.4962 92.8277 76.341 92.776 76.1883 92.7166C76.0356 92.6573 75.8862 92.5909 75.74 92.517C75.5939 92.4429 75.4518 92.3619 75.3137 92.274C75.1756 92.186 75.0421 92.0916 74.9131 91.9905C74.7843 91.8895 74.6607 91.7824 74.5423 91.6693C74.4241 91.5561 74.3116 91.4375 74.2048 91.3132C74.0982 91.189 73.9979 91.0599 73.9039 90.9258C73.81 90.7918 73.7228 90.6533 73.6424 90.5105C73.562 90.3679 73.4888 90.2216 73.4228 90.0717C73.3568 89.922 73.2982 89.7693 73.2471 89.6136C73.1962 89.4581 73.153 89.3004 73.1174 89.1404C73.0819 88.9806 73.0543 88.8195 73.0347 88.657C73.0147 88.4942 73.003 88.3311 72.9995 88.1675C72.9957 88.0038 73.0001 87.8402 73.0127 87.6769C73.0251 87.5137 73.0454 87.3514 73.0736 87.1901C73.1021 87.0289 73.1383 86.8694 73.1824 86.7117C73.2263 86.5539 73.2779 86.3987 73.3374 86.246C73.3966 86.0933 73.4631 85.9439 73.537 85.7978C73.611 85.6519 73.692 85.5098 73.78 85.3714C73.8679 85.2334 73.9624 85.0999 74.0634 84.9712C74.1645 84.8422 74.2716 84.7185 74.3847 84.6C74.4978 84.4819 74.6165 84.3694 74.7407 84.2625C74.865 84.1559 74.9941 84.0557 75.1281 83.9617C75.2622 83.8677 75.4005 83.7805 75.5431 83.7001C75.686 83.6198 75.8323 83.5466 75.9819 83.4805C76.1319 83.4143 76.2845 83.3557 76.44 83.3048C76.5957 83.2536 76.7535 83.2103 76.9132 83.1748C77.0732 83.1393 77.2345 83.1117 77.397 83.092C77.5595 83.0723 77.7226 83.0608 77.8864 83.0572C78.0502 83.0535 78.2138 83.0577 78.377 83.0701C78.5403 83.0824 78.7026 83.1028 78.8638 83.1313C79.0251 83.1595 79.1846 83.1957 79.3423 83.2398C79.5 83.2839 79.6553 83.3355 79.808 83.3947C79.9604 83.454 80.1097 83.5206 80.2558 83.5947C80.4019 83.6685 80.5441 83.7494 80.6822 83.8373C80.8205 83.9253 80.954 84.0198 81.0828 84.1208C81.2118 84.2218 81.3354 84.3289 81.4536 84.4421C81.572 84.5552 81.6846 84.6739 81.7915 84.7981C81.898 84.9223 81.9983 85.0514 82.0923 85.1855C82.1863 85.3195 82.2735 85.4579 82.3538 85.6005C82.4342 85.7433 82.5074 85.8896 82.5734 86.0393C82.6397 86.1892 82.6983 86.3419 82.7492 86.4974C82.8003 86.6531 82.8437 86.8108 82.8792 86.9706C82.9147 87.1305 82.9423 87.2918 82.962 87.4543C82.9816 87.6169 82.9933 87.78 82.9971 87.9438C83.0006 88.1076 82.9962 88.2711 82.9839 88.4344C82.9715 88.5976 82.9511 88.7599 82.9227 88.9212C82.8944 89.0824 82.8583 89.2419 82.8142 89.3997C82.7703 89.5574 82.7187 89.7126 82.6592 89.8653C82.6 90.0177 82.5335 90.167 82.4597 90.3132C82.3856 90.4593 82.3047 90.6014 82.217 90.7395C82.1291 90.8778 82.0346 91.0114 81.9336 91.1401C81.8325 91.2691 81.7254 91.3929 81.6123 91.5113C81.4991 91.6295 81.3805 91.7419 81.2563 91.8488C81.132 91.9554 81.0029 92.0556 80.8689 92.1496C80.7348 92.2436 80.5964 92.3309 80.4535 92.4116C80.3109 92.492 80.1647 92.5651 80.0151 92.6311">
</path>
<path     fill="#000000"  d="M102.028 80.0515L102.028 80.0576C100.905 80.0556 99.8295 80.2801 98.8012 80.7311C98.5616 80.8367 98.3276 80.9538 98.0993 81.0826C97.871 81.2111 97.6496 81.3506 97.4349 81.501C97.2205 81.6514 97.0138 81.8119 96.815 81.9825C96.6162 82.1533 96.4263 82.3334 96.2451 82.5226C96.0639 82.7121 95.8925 82.9099 95.7307 83.116C95.5692 83.3223 95.4181 83.536 95.2775 83.757C95.1367 83.978 95.0072 84.2053 94.889 84.4392C94.7706 84.673 94.6639 84.912 94.5689 85.1562C94.4741 85.4006 94.3915 85.6489 94.3209 85.9011C94.2506 86.1536 94.1928 86.4088 94.1474 86.6668C94.1021 86.9249 94.0695 87.1845 94.0496 87.4458C94.0296 87.7071 94.0226 87.9688 94.0284 88.2308C94.0342 88.4926 94.0528 88.7536 94.0843 89.0139C94.1158 89.2739 94.16 89.5318 94.217 89.7876C94.2739 90.0434 94.3432 90.2958 94.4249 90.545C94.5065 90.794 94.6001 91.0382 94.7057 91.2779C94.8614 91.6309 95.0418 91.9709 95.2469 92.298C95.4518 92.6248 95.6792 92.9352 95.9291 93.2292C96.1791 93.5233 96.4489 93.7977 96.7387 94.0524C97.0282 94.3074 97.3346 94.5402 97.6579 94.7509C97.9814 94.9615 98.3183 95.1477 98.6685 95.3095C99.0187 95.4715 99.3788 95.6073 99.7487 95.7169C100.119 95.8268 100.494 95.9094 100.876 95.9649C101.258 96.02 101.642 96.0476 102.028 96.0476L102.147 96.0514L118.028 96.0514C119.15 96.0491 120.225 95.8245 121.252 95.3737L121.255 95.3718C121.494 95.266 121.728 95.1488 121.956 95.0203C122.185 94.8916 122.406 94.752 122.621 94.6016C122.835 94.4511 123.042 94.2905 123.24 94.1197C123.439 93.9491 123.629 93.7691 123.81 93.5796C123.991 93.3904 124.163 93.1926 124.324 92.9862C124.486 92.7801 124.637 92.5666 124.777 92.3456C124.918 92.1244 125.048 91.8968 125.166 91.663C125.284 91.4294 125.391 91.1904 125.486 90.946C125.58 90.7019 125.663 90.4535 125.733 90.2011C125.804 89.9489 125.862 89.6937 125.907 89.4357C125.952 89.1775 125.985 88.9178 126.005 88.6568C126.025 88.3955 126.032 88.1338 126.025 87.8717C126.02 87.6099 126.001 87.3489 125.97 87.0886C125.938 86.8286 125.894 86.5707 125.837 86.315C125.78 86.0592 125.711 85.8069 125.629 85.5579C125.547 85.309 125.454 85.0646 125.348 84.8247C125.192 84.4719 125.012 84.1322 124.807 83.8054C124.602 83.4788 124.374 83.1685 124.125 82.8745C123.875 82.5807 123.605 82.3064 123.316 82.0517C123.026 81.7969 122.719 81.5642 122.396 81.3536C122.073 81.1432 121.736 80.9571 121.386 80.7953C121.036 80.6333 120.676 80.4975 120.306 80.3879C119.936 80.278 119.561 80.1955 119.179 80.1404C118.797 80.0849 118.414 80.0572 118.028 80.0572L118.028 80.0511L102.028 80.0515Z">
</path>
<path   fill="rgba(72, 72, 72, 1.00)"  d="M103.028 80.0515L103.028 80.0576C103.028 80.6106 102.579 81.0586 102.026 81.0576C103.028 80.6106 102.579 81.0586 102.026 81.0576Q100.552 81.0549 99.2029 81.6469Q98.8901 81.7847 98.5906 81.9536Q98.2904 82.1226 98.0087 82.3199Q97.7275 82.5173 97.4662 82.7414Q97.2055 82.9654 96.9674 83.2141Q96.7298 83.4626 96.5173 83.7334Q96.3059 84.0036 96.1212 84.2938Q95.9362 84.5841 95.7815 84.8902Q95.6256 85.1981 95.5008 85.5188Q95.3767 85.839 95.284 86.1705Q95.1919 86.5011 95.1323 86.8399Q95.0728 87.1787 95.0467 87.5218Q95.0205 87.8647 95.0281 88.2087Q95.0358 88.5522 95.0771 88.8938Q95.1184 89.2348 95.1931 89.5702Q95.2679 89.9063 95.3752 90.2337Q95.4822 90.5601 95.6208 90.8747Q95.825 91.3375 96.0941 91.7667Q96.363 92.1957 96.691 92.5816Q97.0189 92.9673 97.3989 93.3014Q97.7796 93.6366 98.2038 93.913Q98.6283 94.1894 99.0878 94.4016Q99.5476 94.6143 100.033 94.7581Q100.519 94.9024 101.02 94.9752Q101.521 95.0476 102.028 95.0476C102.038 95.0476 102.049 95.0478 102.059 95.0481L102.179 95.0519L102.147 96.0514L102.147 95.0514L118.028 95.0514Q119.505 95.0484 120.851 94.458L121.252 95.3737L120.612 94.6056L120.614 94.6037C120.686 94.544 120.765 94.4947 120.851 94.4571C120.686 94.544 120.765 94.4947 120.851 94.4571Q121.166 94.3179 121.466 94.1489Q121.765 93.9802 122.046 93.7829Q122.328 93.5856 122.588 93.3616Q122.85 93.1371 123.088 92.8885Q123.325 92.6399 123.537 92.3693Q123.749 92.0987 123.934 91.8088Q124.118 91.5184 124.274 91.2112Q124.429 90.9048 124.554 90.5837Q124.678 90.2637 124.77 89.9328Q124.863 89.6011 124.922 89.2626Q124.981 88.924 125.008 88.5807Q125.034 88.238 125.026 87.8948Q125.018 87.5507 124.977 87.2087Q124.935 86.8673 124.861 86.5323Q124.786 86.1968 124.679 85.8703Q124.572 85.5428 124.433 85.2275Q124.229 84.7656 123.96 84.3365Q123.691 83.9082 123.362 83.5217Q123.035 83.1367 122.655 82.8024Q122.275 82.468 121.85 82.1912Q121.426 81.9155 120.967 81.7032Q120.507 81.4904 120.022 81.3467Q119.536 81.2024 119.036 81.1301Q118.534 81.0572 118.028 81.0572C117.476 81.0572 117.028 80.6095 117.028 80.0572L117.028 80.0511L118.028 80.0511L118.028 81.0511L102.028 81.0515L102.028 80.0515L103.028 80.0515ZM101.028 80.0515C101.028 79.4993 101.475 79.0515 102.028 79.0515L118.028 79.0511C118.58 79.0511 119.028 79.4989 119.028 80.0511L119.028 80.0572L118.028 80.0572L118.028 79.0572Q118.679 79.0572 119.322 79.1506Q119.966 79.2438 120.59 79.4291Q121.215 79.6143 121.805 79.8875Q122.396 80.1604 122.943 80.516Q123.487 80.8711 123.976 81.3009Q124.464 81.7306 124.887 82.2272Q125.308 82.723 125.654 83.2743Q126 83.8253 126.264 84.4219Q126.442 84.8267 126.579 85.2456Q126.717 85.6668 126.813 86.0976Q126.909 86.5288 126.962 86.9686Q127.016 87.4082 127.025 87.8487Q127.035 88.2909 127.002 88.7328Q126.968 89.1727 126.892 89.6088Q126.815 90.0447 126.697 90.4693Q126.578 90.8951 126.418 91.3083Q126.258 91.7204 126.058 92.1148Q125.859 92.5089 125.621 92.8824Q125.384 93.2551 125.111 93.6031Q124.839 93.951 124.533 94.2707Q124.227 94.5907 123.893 94.8778Q123.557 95.1665 123.195 95.4202Q122.833 95.6739 122.447 95.8918Q122.062 96.1083 121.659 96.2866L121.255 95.3718L121.659 96.2866L121.255 95.3718L121.895 96.14L121.893 96.1419C121.82 96.2021 121.74 96.2517 121.654 96.2895Q119.926 97.0476 118.028 97.0514L102.147 97.0514C102.137 97.0514 102.126 97.0512 102.116 97.0509L101.996 97.0471L102.028 96.0476L102.028 97.0476Q101.377 97.0476 100.732 96.9545Q100.088 96.8609 99.4646 96.6757Q98.8398 96.4906 98.2492 96.2173Q97.6583 95.9444 97.112 95.5887Q96.5664 95.2332 96.0784 94.8035Q95.5892 94.3734 95.1672 93.8769Q94.7453 93.3806 94.3997 92.8292Q94.0536 92.2773 93.7906 91.681Q93.6124 91.2766 93.4746 90.8564Q93.3369 90.4362 93.2409 90.0049Q93.1448 89.5732 93.0916 89.134Q93.0384 88.6948 93.0286 88.2529Q93.0189 87.8108 93.0524 87.3698Q93.086 86.929 93.1625 86.4937Q93.239 86.0587 93.3579 85.6317Q93.4768 85.2067 93.6369 84.7936Q93.7971 84.3818 93.9965 83.9881Q94.1961 83.5932 94.4338 83.2202Q94.6708 82.8477 94.944 82.4986Q95.2168 82.151 95.5228 81.831Q95.8282 81.512 96.1638 81.2236Q96.4991 80.936 96.861 80.682Q97.2234 80.4281 97.608 80.2116Q97.9934 79.9942 98.3995 79.8153Q100.135 79.0542 102.03 79.0576L102.028 80.0576L102.03 79.0576L102.028 80.0576L101.028 80.0576L101.028 80.0515Z">
</path>
<path     fill="#D43030"  d="M104.014 92.6279C103.865 92.6939 103.712 92.7524 103.556 92.8033C103.401 92.8544 103.243 92.8978 103.083 92.9333C102.923 92.9686 102.762 92.9962 102.599 93.0161C102.437 93.0357 102.274 93.0473 102.11 93.0508C101.946 93.0546 101.783 93.0502 101.62 93.0376C101.456 93.0253 101.294 93.005 101.133 92.9768C100.972 92.9483 100.812 92.912 100.654 92.8679C100.497 92.8238 100.341 92.7722 100.189 92.713C100.036 92.6538 99.8866 92.5871 99.7404 92.513C99.5943 92.4392 99.4522 92.3583 99.3141 92.2704C99.176 92.1824 99.0425 92.088 98.9135 91.9869C98.7847 91.8859 98.6611 91.7788 98.5427 91.6656C98.4245 91.5525 98.312 91.4338 98.2052 91.3096C98.0986 91.1854 97.9983 91.0563 97.9043 90.9222C97.8103 90.7879 97.7232 90.6495 97.6428 90.5068C97.5624 90.3642 97.4892 90.218 97.4232 90.068C97.3572 89.9184 97.2986 89.7657 97.2474 89.61C97.1965 89.4542 97.1533 89.2965 97.1178 89.1368C97.0823 88.977 97.0547 88.8158 97.035 88.653C97.0151 88.4905 97.0034 88.3275 96.9999 88.1639C96.9961 88.0001 97.0005 87.8366 97.0131 87.6733C97.0255 87.5101 97.0457 87.3478 97.074 87.1865C97.1024 87.0253 97.1387 86.8658 97.1828 86.708C97.2266 86.5503 97.2783 86.3951 97.3378 86.2424C97.397 86.0897 97.4635 85.9403 97.5373 85.7942C97.6114 85.648 97.6924 85.5059 97.7803 85.3678C97.8683 85.2297 97.9628 85.0962 98.0638 84.9672C98.1649 84.8384 98.2719 84.7148 98.3851 84.5964C98.4982 84.4782 98.6169 84.3657 98.7411 84.2589C98.8653 84.1523 98.9945 84.052 99.1285 83.9581C99.2626 83.8641 99.4009 83.7769 99.5435 83.6965C99.6864 83.6159 99.8326 83.5426 99.9823 83.4765C100.132 83.4105 100.285 83.3521 100.44 83.3012C100.596 83.25 100.754 83.2067 100.914 83.1712C101.074 83.1356 101.235 83.108 101.397 83.0884C101.56 83.0687 101.723 83.057 101.887 83.0532C102.051 83.0497 102.214 83.0541 102.377 83.0665C102.541 83.0788 102.703 83.0992 102.864 83.1277C103.025 83.1559 103.185 83.1921 103.343 83.2362C103.5 83.2803 103.656 83.3319 103.808 83.3911C103.961 83.4503 104.11 83.517 104.256 83.5911C104.402 83.6649 104.544 83.7458 104.683 83.8337C104.821 83.9216 104.954 84.0161 105.083 84.1172C105.212 84.2182 105.336 84.3253 105.454 84.4384C105.572 84.5516 105.685 84.6702 105.792 84.7945C105.898 84.9187 105.999 85.0478 106.093 85.1819C106.187 85.3159 106.274 85.4542 106.354 85.5969C106.435 85.7395 106.508 85.8857 106.574 86.0357C106.64 86.1856 106.699 86.3383 106.75 86.4937C106.801 86.6495 106.844 86.8072 106.88 86.9669C106.915 87.1269 106.943 87.2882 106.962 87.4507C106.982 87.6132 106.994 87.7764 106.998 87.9402C107.001 88.1037 106.997 88.2671 106.984 88.4304C106.972 88.5936 106.952 88.7561 106.923 88.9175C106.895 89.0788 106.859 89.2383 106.815 89.396C106.771 89.5538 106.719 89.7089 106.66 89.8613C106.6 90.014 106.534 90.1634 106.46 90.3095C106.386 90.4557 106.305 90.5978 106.217 90.7359C106.129 90.8742 106.035 91.0077 105.934 91.1365C105.833 91.2655 105.726 91.3891 105.613 91.5073C105.5 91.6257 105.381 91.7383 105.257 91.8452C105.132 91.9518 105.003 92.052 104.869 92.146C104.735 92.24 104.597 92.3272 104.454 92.4076C104.311 92.4882 104.165 92.5615 104.015 92.6275">
</path>
<path     fill="#000000"  d="M142.027 80.0555L142.027 80.0616C140.904 80.0598 139.829 80.2845 138.801 80.7355C138.561 80.8411 138.327 80.9581 138.099 81.0866C137.87 81.2154 137.649 81.3549 137.434 81.5054C137.22 81.6558 137.013 81.8163 136.814 81.9869C136.615 82.1577 136.425 82.3377 136.244 82.527C136.063 82.7165 135.892 82.9143 135.73 83.1204C135.568 83.3265 135.417 83.5401 135.277 83.7614C135.136 83.9824 135.006 84.2097 134.888 84.4436C134.77 84.6774 134.663 84.9164 134.568 85.1606C134.473 85.4047 134.391 85.653 134.32 85.9055C134.25 86.1577 134.192 86.413 134.147 86.6712C134.101 86.9293 134.069 87.1889 134.049 87.4502C134.029 87.7115 134.022 87.973 134.028 88.2348C134.034 88.4968 134.052 88.7579 134.084 89.0179C134.115 89.2782 134.159 89.5362 134.216 89.792C134.273 90.0477 134.342 90.3001 134.424 90.549C134.506 90.798 134.599 91.0424 134.705 91.2822C134.861 91.6353 135.041 91.9752 135.246 92.302C135.451 92.629 135.679 92.9395 135.929 93.2332C136.178 93.5273 136.448 93.8018 136.738 94.0568C137.027 94.3118 137.334 94.5446 137.657 94.7553C137.981 94.9657 138.317 95.1518 138.668 95.3139C139.018 95.4756 139.378 95.6115 139.748 95.7213C140.118 95.8312 140.494 95.9137 140.876 95.9689C141.257 96.0243 141.641 96.0519 142.027 96.0516L142.027 96.0554L142.146 96.0554L158.027 96.0554L158.027 96.0516C159.149 96.0531 160.224 95.8286 161.252 95.3781L161.254 95.3759C161.494 95.2703 161.728 95.1531 161.956 95.0244C162.184 94.8959 162.405 94.7564 162.62 94.606C162.834 94.4555 163.041 94.2949 163.24 94.1241C163.438 93.9532 163.628 93.7732 163.81 93.584C163.991 93.3945 164.162 93.1967 164.324 92.9906C164.485 92.7842 164.636 92.5706 164.777 92.3496C164.918 92.1286 165.047 91.9012 165.165 91.6674C165.284 91.4336 165.39 91.1946 165.485 90.9504C165.58 90.706 165.662 90.4577 165.733 90.2055C165.803 89.953 165.861 89.6978 165.906 89.4397C165.952 89.1817 165.984 88.9221 166.004 88.6608C166.024 88.3995 166.031 88.1379 166.025 87.8761C166.019 87.6141 166 87.3531 165.969 87.093C165.937 86.833 165.893 86.5751 165.836 86.3194C165.78 86.0636 165.71 85.8113 165.629 85.5623C165.547 85.3134 165.453 85.069 165.347 84.8291C165.192 84.4763 165.011 84.1366 164.806 83.8098C164.601 83.4829 164.374 83.1726 164.124 82.8789C163.874 82.5851 163.604 82.3108 163.315 82.0561C163.025 81.8011 162.719 81.5684 162.396 81.358C162.072 81.1473 161.736 80.9611 161.386 80.7994C161.035 80.6376 160.675 80.5018 160.306 80.3919C159.936 80.2823 159.56 80.1998 159.178 80.1444C158.797 80.0889 158.413 80.0613 158.027 80.0616L158.027 80.0555L142.027 80.0555Z">
</path>
<path   fill="rgba(72, 72, 72, 1.00)"  d="M143.027 80.0555L143.027 80.0616C143.027 80.6145 142.579 81.0625 142.026 81.0616C143.027 80.6145 142.579 81.0625 142.026 81.0616Q140.552 81.0593 139.203 81.6512Q138.889 81.7893 138.589 81.958Q138.29 82.1268 138.008 82.3243Q137.727 82.5217 137.465 82.7458Q137.205 82.9699 136.967 83.2185Q136.729 83.4667 136.517 83.7372Q136.305 84.0079 136.121 84.2978Q135.935 84.5885 135.781 84.8946Q135.625 85.2022 135.501 85.5223Q135.376 85.8429 135.284 86.1737Q135.191 86.5054 135.132 86.8442Q135.072 87.1831 135.046 87.5261Q135.02 87.869 135.027 88.2127Q135.035 88.5561 135.077 88.8977Q135.118 89.2397 135.192 89.5755Q135.267 89.9105 135.374 90.2374Q135.481 90.5644 135.62 90.8794Q135.824 91.3417 136.093 91.7704Q136.362 92.1998 136.69 92.5853Q137.018 92.9716 137.399 93.3061Q137.779 93.6409 138.203 93.9172Q138.627 94.1934 139.088 94.4063Q139.547 94.6185 140.033 94.7627Q140.518 94.9068 141.019 94.9791Q141.52 95.052 142.027 95.0516C142.579 95.0513 143.027 95.4991 143.027 96.0516L143.027 96.0554L142.027 96.0554L142.027 95.0554L142.146 95.0554L158.027 95.0554L158.027 96.0554L157.027 96.0554L157.027 96.0516C157.027 95.4988 157.476 95.0509 158.029 95.0516C157.027 95.4988 157.476 95.0509 158.029 95.0516Q159.501 95.0536 160.85 94.4622L161.252 95.3781L160.484 94.7379L160.486 94.7356C160.585 94.6169 160.71 94.5228 160.851 94.4606C160.585 94.6169 160.71 94.5228 160.851 94.4606Q161.165 94.3223 161.464 94.1536Q161.764 93.9845 162.045 93.7873Q162.327 93.5897 162.588 93.3656Q162.849 93.1414 163.087 92.8924Q163.324 92.6445 163.536 92.3737Q163.749 92.1027 163.934 91.8121Q164.118 91.5229 164.273 91.2163Q164.428 90.909 164.553 90.5886Q164.677 90.2675 164.77 89.936Q164.862 89.6055 164.921 89.2666Q164.981 88.9283 165.007 88.5858Q165.033 88.2417 165.025 87.8982Q165.017 87.5551 164.976 87.2132Q164.935 86.8714 164.86 86.5358Q164.786 86.2008 164.678 85.8739Q164.571 85.5475 164.432 85.2327Q164.228 84.7703 163.959 84.3413Q163.69 83.9123 163.362 83.5268Q163.034 83.1411 162.654 82.8068Q162.274 82.4721 161.85 82.1961Q161.425 81.9193 160.966 81.7071Q160.506 81.4948 160.021 81.3505Q159.536 81.2068 159.035 81.134Q158.534 81.0613 158.028 81.0616C157.475 81.062 157.027 80.6141 157.027 80.0616L157.027 80.0555L158.027 80.0555L158.027 81.0555L142.027 81.0555L142.027 80.0555L143.027 80.0555ZM141.027 80.0555C141.027 79.5033 141.475 79.0555 142.027 79.0555L158.027 79.0555C158.579 79.0555 159.027 79.5033 159.027 80.0555L159.027 80.0616L158.027 80.0616L158.027 79.0616Q158.678 79.0612 159.322 79.1547Q159.966 79.2483 160.59 79.4333Q161.214 79.6186 161.805 79.8916Q162.396 80.1646 162.941 80.5199Q163.487 80.8752 163.975 81.3053Q164.464 81.735 164.886 82.2309Q165.308 82.727 165.653 83.2782Q165.999 83.83 166.262 84.4255Q166.441 84.8305 166.579 85.2507Q166.716 85.6705 166.813 86.1029Q166.908 86.5339 166.961 86.9728Q167.015 87.4115 167.025 87.854Q167.035 88.2956 167.001 88.7358Q166.968 89.1771 166.891 89.6128Q166.815 90.0479 166.696 90.4749Q166.577 90.8997 166.417 91.3122Q166.257 91.7246 166.058 92.1185Q165.858 92.5132 165.62 92.8871Q165.383 93.2592 165.111 93.6075Q164.838 93.9556 164.532 94.2756Q164.227 94.5943 163.892 94.8825Q163.556 95.171 163.194 95.4246Q162.832 95.6786 162.447 95.8951Q162.062 96.1128 161.657 96.2911L161.254 95.3759L161.657 96.2911L161.254 95.3759L162.022 96.0161L162.02 96.0184C161.921 96.1374 161.795 96.2318 161.653 96.294Q159.919 97.0542 158.026 97.0516L158.027 96.0516L158.026 97.0516L158.027 96.0516L159.027 96.0516L159.027 96.0554C159.027 96.6077 158.579 97.0554 158.027 97.0554L142.146 97.0554L142.027 97.0554C141.475 97.0554 141.027 96.6077 141.027 96.0554L141.027 96.0516L142.027 96.0516L142.028 97.0516Q141.376 97.0521 140.733 96.9586Q140.088 96.8654 139.463 96.6799Q138.839 96.4947 138.248 96.2215Q137.657 95.9481 137.112 95.5933Q136.566 95.2377 136.077 94.8075Q135.588 94.377 135.167 93.8812Q134.745 93.3853 134.399 92.8335Q134.053 92.2818 133.79 91.6851Q133.612 91.2805 133.474 90.8606Q133.336 90.4407 133.24 90.0084Q133.144 89.577 133.091 89.1382Q133.038 88.6997 133.028 88.257Q133.018 87.815 133.052 87.3743Q133.085 86.9334 133.162 86.4982Q133.238 86.0619 133.357 85.6373Q133.476 85.2106 133.636 84.7988Q133.796 84.3867 133.996 83.9926Q134.195 83.5976 134.433 83.225Q134.67 82.8513 134.943 82.5035Q135.216 82.1557 135.522 81.8354Q135.827 81.5165 136.163 81.228Q136.498 80.9404 136.86 80.6864Q137.222 80.4328 137.608 80.2152Q137.993 79.9983 138.399 79.8197Q140.134 79.0586 142.029 79.0616L142.027 80.0616L142.029 79.0616L142.027 80.0616L141.027 80.0616L141.027 80.0555Z">
</path>
<path     fill="#212121"  d="M144.014 92.6319C143.864 92.6979 143.711 92.7564 143.555 92.8073C143.4 92.8584 143.242 92.9018 143.082 92.9373C142.922 92.9728 142.761 93.0004 142.598 93.0201C142.436 93.0397 142.273 93.0513 142.109 93.0548C141.945 93.0586 141.782 93.0543 141.618 93.042C141.455 93.0294 141.293 93.009 141.132 92.9807C140.97 92.9523 140.811 92.916 140.653 92.8719C140.495 92.8281 140.34 92.7764 140.188 92.7169C140.035 92.6577 139.886 92.5912 139.74 92.5174C139.593 92.4433 139.451 92.3623 139.313 92.2744C139.175 92.1864 139.042 92.0919 138.913 91.9909C138.784 91.8899 138.66 91.7828 138.542 91.6696C138.423 91.5565 138.311 91.4378 138.204 91.3136C138.098 91.1894 137.998 91.0603 137.904 90.9262C137.809 90.7922 137.722 90.6537 137.642 90.5108C137.561 90.3682 137.488 90.2221 137.422 90.0724C137.356 89.9225 137.298 89.7697 137.247 89.6139C137.196 89.4585 137.152 89.3008 137.117 89.1407C137.081 88.981 137.054 88.8199 137.034 88.6573C137.014 88.4948 137.003 88.3317 136.999 88.1679C136.995 88.0041 137 87.8406 137.012 87.6773C137.025 87.514 137.045 87.3518 137.073 87.1905C137.102 87.0293 137.138 86.8698 137.182 86.712C137.226 86.5543 137.277 86.3991 137.337 86.2464C137.396 86.0937 137.463 85.9444 137.537 85.7985C137.61 85.6524 137.691 85.5101 137.779 85.3718C137.867 85.2337 137.962 85.1003 138.063 84.9716C138.164 84.8425 138.271 84.7188 138.384 84.6004C138.497 84.4822 138.616 84.3697 138.74 84.2629C138.865 84.1563 138.994 84.056 139.128 83.9621C139.262 83.8681 139.4 83.7809 139.543 83.7005C139.685 83.6201 139.832 83.5469 139.982 83.4809C140.131 83.4149 140.284 83.3563 140.44 83.3052C140.595 83.2543 140.753 83.2111 140.913 83.1755C141.073 83.14 141.234 83.1123 141.397 83.0924C141.559 83.0727 141.722 83.0611 141.886 83.0576C142.05 83.0538 142.213 83.0581 142.376 83.0705C142.54 83.0831 142.702 83.1035 142.863 83.1317C143.024 83.1602 143.184 83.1963 143.342 83.2402C143.499 83.2842 143.654 83.3359 143.807 83.3951C143.96 83.4543 144.109 83.521 144.255 83.595C144.402 83.6689 144.544 83.7498 144.682 83.8377C144.82 83.9256 144.953 84.0201 145.082 84.1212C145.211 84.2222 145.335 84.3293 145.453 84.4424C145.572 84.5556 145.684 84.6742 145.791 84.7985C145.898 84.9227 145.998 85.0518 146.092 85.1859C146.186 85.3199 146.273 85.4584 146.353 85.6012C146.434 85.7438 146.507 85.89 146.573 86.0396C146.639 86.1896 146.698 86.3424 146.749 86.4981C146.8 86.6536 146.843 86.8113 146.878 86.9713C146.914 87.1311 146.942 87.2922 146.962 87.4547C146.981 87.6172 146.993 87.7804 146.996 87.9441C147 88.108 146.996 88.2715 146.983 88.4347C146.971 88.598 146.951 88.7603 146.922 88.9215C146.894 89.0828 146.858 89.2423 146.814 89.4C146.77 89.5577 146.718 89.713 146.659 89.8657C146.6 90.0184 146.533 90.1676 146.459 90.3135C146.385 90.4597 146.304 90.6019 146.216 90.7402C146.128 90.8783 146.034 91.0118 145.933 91.1405C145.832 91.2695 145.725 91.3932 145.612 91.5116C145.499 91.6298 145.38 91.7423 145.255 91.8492C145.131 91.9557 145.002 92.056 144.868 92.15C144.734 92.2442 144.596 92.3315 144.453 92.4119C144.31 92.4923 144.164 92.5655 144.014 92.6315">
</path>
<rect  x="142.02706909179688" y="83.0592041015625" width="15.999999198494022" height="9.999999924255615"    fill="#212121" >
</rect>
<path     fill="#D43030"  d="M160.013 92.6319C159.863 92.6979 159.711 92.7564 159.555 92.8073C159.4 92.8584 159.242 92.9018 159.082 92.9373C158.922 92.9728 158.761 93.0004 158.598 93.0201C158.436 93.0397 158.273 93.0513 158.109 93.0548C157.945 93.0586 157.782 93.0543 157.618 93.042C157.455 93.0294 157.293 93.009 157.132 92.9807C156.97 92.9523 156.811 92.916 156.653 92.8719C156.495 92.8281 156.34 92.7764 156.188 92.7169C156.035 92.6577 155.885 92.5912 155.739 92.5174C155.593 92.4433 155.451 92.3623 155.313 92.2744C155.175 92.1864 155.041 92.0919 154.913 91.9909C154.784 91.8899 154.66 91.7828 154.542 91.6696C154.423 91.5565 154.311 91.4378 154.204 91.3136C154.097 91.1894 153.997 91.0603 153.903 90.9262C153.809 90.7922 153.722 90.6537 153.642 90.5108C153.561 90.3682 153.488 90.222 153.422 90.072C153.356 89.9224 153.297 89.7697 153.246 89.6139C153.195 89.4585 153.152 89.3008 153.117 89.1407C153.081 88.981 153.054 88.8199 153.034 88.6573C153.014 88.4948 153.003 88.3317 152.999 88.1679C152.995 88.0041 153 87.8406 153.012 87.6773C153.024 87.514 153.045 87.3518 153.073 87.1905C153.101 87.0293 153.138 86.8698 153.182 86.712C153.226 86.5543 153.277 86.3991 153.337 86.2464C153.396 86.0937 153.462 85.9443 153.536 85.7981C153.61 85.6523 153.691 85.5101 153.779 85.3718C153.867 85.2337 153.962 85.1003 154.063 84.9716C154.164 84.8425 154.271 84.7188 154.384 84.6004C154.497 84.4822 154.616 84.3697 154.74 84.2629C154.864 84.1563 154.993 84.056 155.127 83.9621C155.261 83.8681 155.4 83.7809 155.542 83.7005C155.685 83.6201 155.831 83.5469 155.981 83.4809C156.131 83.4149 156.284 83.3563 156.44 83.3052C156.595 83.254 156.753 83.2107 156.912 83.1751C157.072 83.1396 157.234 83.112 157.396 83.0924C157.559 83.0727 157.722 83.0611 157.886 83.0576C158.049 83.0538 158.213 83.0581 158.376 83.0705C158.54 83.0831 158.702 83.1035 158.863 83.1317C159.024 83.1602 159.184 83.1963 159.342 83.2402C159.499 83.2842 159.654 83.3359 159.807 83.3951C159.96 83.4543 160.109 83.521 160.255 83.595C160.401 83.6689 160.543 83.7498 160.682 83.8377C160.82 83.9256 160.953 84.0201 161.082 84.1212C161.211 84.2222 161.335 84.3293 161.453 84.4424C161.571 84.5556 161.684 84.6742 161.791 84.7985C161.897 84.9227 161.998 85.0518 162.092 85.1859C162.186 85.3199 162.273 85.4582 162.353 85.6008C162.433 85.7437 162.507 85.89 162.573 86.0396C162.639 86.1896 162.698 86.3423 162.748 86.4977C162.8 86.6535 162.843 86.8112 162.878 86.9709C162.914 87.1309 162.942 87.2922 162.961 87.4547C162.981 87.6172 162.993 87.7804 162.996 87.9441C163 88.108 162.995 88.2715 162.983 88.4347C162.971 88.598 162.95 88.7603 162.922 88.9215C162.894 89.0828 162.858 89.2423 162.813 89.4C162.77 89.5577 162.718 89.713 162.658 89.8657C162.599 90.0181 162.533 90.1674 162.459 90.3135C162.385 90.4597 162.304 90.6019 162.216 90.7402C162.128 90.8783 162.034 91.0118 161.933 91.1405C161.832 91.2695 161.725 91.3932 161.612 91.5116C161.498 91.6298 161.38 91.7423 161.256 91.8492C161.131 91.9557 161.002 92.056 160.868 92.15C160.734 92.244 160.595 92.3313 160.453 92.4119C160.31 92.4923 160.164 92.5655 160.014 92.6315">
</path>
<rect  x="14.028488159179688" y="112.05694580078125" width="15.999999198494022" height="15.999999198494022"    fill="#2A2E37" >
</rect>
<path   fill="rgba(255, 255, 255, 1.00)"  d="M13.5285 111.557L30.5285 111.557L30.5285 128.557L13.5285 128.557L13.5285 111.557ZM14.5285 112.557L14.5285 127.557L29.5285 127.557L29.5285 112.557L14.5285 112.557Z">
</path>
<rect  x="38.02848815917969" y="112.05694580078125" width="15.999999198494022" height="15.999999198494022"    fill="#2A2E37" >
</rect>
<path   fill="rgba(255, 255, 255, 1.00)"  d="M37.5285 111.557L54.5285 111.557L54.5285 128.557L37.5285 128.557L37.5285 111.557ZM38.5285 112.557L38.5285 127.557L53.5285 127.557L53.5285 112.557L38.5285 112.557Z">
</path>
<path   fill="rgba(212, 48, 48, 1)"  d="M43.3909 120.27L45.7481 123.233L44.9656 123.856L44.1369 123.296L49.3228 115.618Q49.3779 115.537 49.4479 115.468Q49.5179 115.398 49.6001 115.344Q49.6822 115.29 49.7734 115.252Q49.8646 115.215 49.9613 115.196Q50.058 115.178 50.1565 115.178Q50.255 115.179 50.3515 115.198Q50.448 115.218 50.5388 115.256Q50.6296 115.294 50.7112 115.349Q50.7928 115.405 50.8621 115.475Q50.9314 115.545 50.9857 115.627Q51.04 115.709 51.0772 115.8Q51.1145 115.891 51.1332 115.988Q51.1519 116.085 51.1514 116.183Q51.1509 116.282 51.1313 116.378Q51.1116 116.475 51.0734 116.565Q51.0353 116.656 50.9801 116.738L45.7942 124.416C45.4162 124.975 44.6035 125.007 44.183 124.478L41.8258 121.515Q41.7645 121.438 41.7194 121.351Q41.6743 121.263 41.6471 121.168Q41.6199 121.074 41.6118 120.976Q41.6036 120.877 41.6148 120.78Q41.6259 120.682 41.6559 120.588Q41.686 120.494 41.7337 120.408Q41.7815 120.322 41.8451 120.247Q41.9087 120.171 41.9858 120.11Q42.0629 120.049 42.1504 120.004Q42.238 119.959 42.3327 119.931Q42.4273 119.904 42.5255 119.896Q42.6236 119.888 42.7215 119.899Q42.8194 119.91 42.9132 119.94Q43.007 119.97 43.0931 120.018Q43.1793 120.066 43.2544 120.129Q43.3296 120.193 43.3909 120.27ZM42.6084 121.893C42.0561 121.893 41.6084 121.445 41.6084 120.893C41.6084 120.34 42.0561 119.893 42.6084 119.893C43.1606 119.893 43.6084 120.34 43.6084 120.893C43.6084 121.445 43.1606 121.893 42.6084 121.893ZM50.1515 117.178C49.5992 117.178 49.1515 116.73 49.1515 116.178C49.1515 115.626 49.5992 115.178 50.1515 115.178C50.7037 115.178 51.1515 115.626 51.1515 116.178C51.1515 116.73 50.7037 117.178 50.1515 117.178Z">
</path>
<path     fill="#2A2E37"  d="M73.2538 127.378C73.0139 127.483 72.7695 127.577 72.5205 127.659C72.2716 127.74 72.0192 127.81 71.7635 127.867C71.5077 127.923 71.2499 127.967 70.9898 127.999C70.7295 128.03 70.4685 128.049 70.2067 128.055C69.9447 128.061 69.683 128.054 69.4217 128.034C69.1606 128.014 68.9011 127.981 68.6431 127.936C68.3849 127.891 68.1296 127.833 67.8774 127.762C67.6249 127.692 67.3766 127.609 67.1324 127.514C66.8883 127.42 66.6493 127.313 66.4155 127.195C66.1816 127.076 65.9542 126.947 65.7333 126.806C65.5123 126.665 65.2986 126.514 65.0922 126.352C64.8861 126.191 64.6885 126.02 64.4992 125.838C64.3098 125.657 64.1297 125.467 63.9591 125.269C63.7883 125.07 63.6278 124.863 63.4776 124.649C63.3272 124.434 63.1876 124.213 63.0589 123.985C62.9304 123.756 62.8132 123.522 62.7074 123.282C62.6018 123.043 62.5082 122.798 62.4265 122.55C62.3449 122.301 62.2757 122.048 62.219 121.792C62.1621 121.537 62.1179 121.279 62.0864 121.018C62.0549 120.758 62.0362 120.497 62.0304 120.235C62.0247 119.974 62.0317 119.712 62.0516 119.451C62.0713 119.189 62.1038 118.93 62.1491 118.672C62.1945 118.414 62.2524 118.158 62.323 117.906C62.3933 117.654 62.4759 117.406 62.5709 117.161C62.6657 116.917 62.7722 116.678 62.8907 116.444C63.0088 116.211 63.1384 115.983 63.2792 115.762C63.4198 115.541 63.5709 115.327 63.7324 115.121C63.8941 114.915 64.0656 114.717 64.2468 114.528C64.4277 114.339 64.6175 114.159 64.8163 113.988C65.0151 113.817 65.2218 113.657 65.4362 113.506C65.6509 113.356 65.8723 113.216 66.1006 113.087C66.3286 112.959 66.5626 112.842 66.8025 112.736C67.0424 112.631 67.2868 112.537 67.5357 112.455C67.7847 112.374 68.037 112.304 68.2928 112.248C68.5485 112.191 68.8064 112.146 69.0664 112.115C69.3265 112.083 69.5875 112.065 69.8495 112.059C70.1114 112.053 70.3729 112.06 70.6342 112.08C70.8954 112.1 71.1551 112.132 71.4131 112.178C71.6712 112.223 71.9264 112.281 72.1789 112.351C72.4311 112.422 72.6794 112.504 72.9238 112.599C73.168 112.694 73.4069 112.8 73.6408 112.919C73.8746 113.037 74.102 113.167 74.323 113.307C74.544 113.448 74.7576 113.599 74.964 113.761C75.1701 113.922 75.3678 114.094 75.557 114.275C75.7465 114.456 75.9266 114.646 76.0975 114.845C76.2681 115.043 76.4286 115.25 76.579 115.464C76.7294 115.679 76.8689 115.9 76.9974 116.128C77.1262 116.357 77.2433 116.591 77.3489 116.831C77.4547 117.07 77.5484 117.315 77.6301 117.564C77.7117 117.813 77.781 118.065 77.838 118.321C77.8946 118.576 77.9388 118.834 77.9702 119.095C78.0017 119.355 78.0205 119.616 78.0266 119.877C78.0323 120.139 78.0253 120.401 78.0054 120.662C77.9857 120.924 77.9532 121.183 77.9079 121.441C77.8625 121.699 77.8046 121.954 77.734 122.207C77.6637 122.459 77.5812 122.708 77.4865 122.952C77.3915 123.196 77.2849 123.435 77.1667 123.669C77.0483 123.903 76.9188 124.13 76.7782 124.351C76.6376 124.572 76.4865 124.786 76.325 124.992C76.1632 125.198 75.9919 125.396 75.811 125.585C75.6298 125.775 75.4398 125.955 75.241 126.125C75.0422 126.296 74.8356 126.457 74.6212 126.607C74.4068 126.758 74.1854 126.897 73.9571 127.026C73.7289 127.154 73.4949 127.272 73.2553 127.377">
</path>
<path   fill="rgba(255, 255, 255, 1.00)"  d="M73.6565 128.293M73.6565 128.293Q73.2517 128.471 72.8321 128.609Q72.4124 128.747 71.9809 128.843Q71.5483 128.939 71.11 128.992Q70.6709 129.045 70.2289 129.055Q69.7869 129.064 69.3467 129.031Q68.9051 128.997 68.47 128.921Q68.0337 128.844 67.6079 128.725Q67.1821 128.606 66.7706 128.447Q66.3585 128.287 65.9637 128.087Q65.5691 127.887 65.1965 127.65Q64.8235 127.412 64.4753 127.139Q64.1272 126.867 63.8077 126.561Q63.4883 126.255 63.2007 125.921Q62.912 125.585 62.6582 125.222Q62.405 124.861 62.1878 124.476Q61.9708 124.09 61.7924 123.686Q61.6141 123.281 61.4763 122.861Q61.3385 122.441 61.2428 122.009Q61.1468 121.578 61.0936 121.139Q61.0405 120.7 61.0307 120.257Q61.0209 119.816 61.0545 119.375Q61.0876 118.934 61.1642 118.499Q61.2408 118.063 61.3599 117.637Q61.4785 117.211 61.639 116.799Q61.7986 116.387 61.9988 115.992Q62.1979 115.598 62.436 115.225Q62.6726 114.852 62.9453 114.504Q63.2185 114.156 63.524 113.837Q63.8292 113.518 64.1646 113.229Q64.5003 112.941 64.8619 112.688Q65.2243 112.434 65.6093 112.216Q65.9948 111.999 66.3997 111.821Q66.8039 111.643 67.2241 111.505Q67.6445 111.367 68.0763 111.271Q68.5072 111.175 68.9462 111.122Q69.3852 111.069 69.8275 111.059Q70.2687 111.049 70.7101 111.083Q71.1508 111.116 71.5862 111.193Q72.0214 111.269 72.4471 111.388Q72.8733 111.507 73.2852 111.667Q73.6978 111.827 74.0926 112.027Q74.4871 112.226 74.8605 112.464Q75.2323 112.701 75.5803 112.973Q75.929 113.247 76.248 113.552Q76.5678 113.858 76.8559 114.193Q77.1441 114.529 77.3976 114.89Q77.6518 115.253 77.8686 115.638Q78.0859 116.023 78.2642 116.428Q78.4424 116.832 78.5803 117.252Q78.718 117.672 78.814 118.103Q78.9099 118.536 78.963 118.975Q79.0161 119.413 79.0263 119.854Q79.0361 120.297 79.0025 120.738Q78.9694 121.179 78.8928 121.614Q78.8161 122.05 78.697 122.476Q78.5786 122.901 78.4187 123.313Q78.2587 123.725 78.0592 124.12Q77.8593 124.514 77.6222 124.888Q77.3849 125.26 77.1122 125.609Q76.8391 125.957 76.5338 126.276Q76.2281 126.596 75.8923 126.884Q75.5574 127.172 75.1955 127.426Q74.8339 127.68 74.4484 127.897Q74.063 128.114 73.6593 128.292Q73.5692 128.332 73.473 128.353Q73.3769 128.375 73.2784 128.377Q73.18 128.38 73.083 128.363Q72.9859 128.346 72.8941 128.31Q72.8023 128.274 72.7191 128.222Q72.636 128.169 72.5647 128.101Q72.4935 128.033 72.4369 127.952Q72.3803 127.872 72.3405 127.781Q72.3007 127.691 72.2793 127.595Q72.2578 127.499 72.2555 127.401Q72.2533 127.302 72.2702 127.205Q72.2872 127.108 72.3228 127.016Q72.3583 126.924 72.4111 126.841Q72.464 126.758 72.532 126.687Q72.6 126.616 72.6806 126.559Q72.7612 126.503 72.8513 126.463Q73.1664 126.324 73.4658 126.155Q73.7657 125.986 74.0469 125.789Q74.3284 125.591 74.5898 125.366Q74.8508 125.143 75.0882 124.894Q75.3256 124.646 75.5378 124.375Q75.7501 124.104 75.9342 123.815Q76.1192 123.524 76.2742 123.218Q76.4297 122.91 76.5542 122.59Q76.6784 122.27 76.771 121.937Q76.8635 121.607 76.923 121.268Q76.9824 120.93 77.0083 120.587Q77.0344 120.243 77.0268 119.9Q77.0189 119.557 76.9775 119.215Q76.9361 118.873 76.8619 118.538Q76.787 118.202 76.6799 117.875Q76.5729 117.549 76.4336 117.233Q76.2952 116.919 76.1262 116.619Q75.9576 116.32 75.7603 116.039Q75.5628 115.757 75.339 115.496Q75.1148 115.235 74.866 114.997Q74.6174 114.76 74.3477 114.548Q74.0764 114.336 73.7855 114.151Q73.4961 113.966 73.189 113.811Q72.8822 113.656 72.5624 113.532Q72.2411 113.407 71.9106 113.315Q71.579 113.222 71.24 113.163Q70.9012 113.103 70.5582 113.077Q70.2158 113.051 69.8716 113.059Q69.5279 113.066 69.1867 113.108Q68.8456 113.149 68.5092 113.224Q68.1738 113.298 67.8473 113.405Q67.5209 113.512 67.2053 113.652Q66.8907 113.79 66.5919 113.958Q66.292 114.128 66.0105 114.325Q65.7287 114.523 65.4681 114.746Q65.207 114.971 64.9696 115.219Q64.7315 115.468 64.5195 115.738Q64.3076 116.008 64.1225 116.3Q63.938 116.589 63.7826 116.897Q63.6274 117.203 63.5029 117.524Q63.3784 117.844 63.2861 118.175Q63.1935 118.506 63.134 118.845Q63.0746 119.183 63.0487 119.527Q63.0226 119.87 63.0302 120.213Q63.0378 120.557 63.0791 120.898Q63.1205 121.24 63.1953 121.576Q63.2697 121.911 63.3767 122.238Q63.484 122.565 63.6223 122.879Q63.7614 123.194 63.9299 123.493Q64.0988 123.793 64.297 124.075Q64.4938 124.357 64.7176 124.617Q64.9415 124.878 65.1908 125.116Q65.4388 125.354 65.7092 125.565Q65.9801 125.778 66.27 125.962Q66.5601 126.147 66.8672 126.302Q67.174 126.458 67.4942 126.582Q67.8146 126.706 68.1468 126.799Q68.4772 126.892 68.8162 126.951Q69.1549 127.011 69.4967 127.037Q69.84 127.063 70.1845 127.055Q70.5282 127.047 70.8696 127.006Q71.2109 126.965 71.5461 126.89Q71.8822 126.816 72.2089 126.708Q72.5356 126.601 72.851 126.463Q72.9411 126.423 73.0373 126.402Q73.1334 126.38 73.2319 126.378Q73.3304 126.376 73.4274 126.393Q73.5244 126.41 73.6162 126.446Q73.708 126.482 73.791 126.534Q73.8741 126.587 73.9452 126.655Q74.0164 126.724 74.0729 126.804Q74.1294 126.885 74.1691 126.975Q74.2087 127.065 74.23 127.161Q74.2514 127.258 74.2535 127.356Q74.2557 127.454 74.2386 127.551Q74.2215 127.648 74.1858 127.74Q74.1501 127.832 74.0972 127.915Q74.0442 127.998 73.9761 128.069Q73.908 128.14 73.8274 128.197Q73.7467 128.253 73.6565 128.293ZM73.2538 128.378C72.7015 128.378 72.2538 127.93 72.2538 127.378C72.2538 126.826 72.7015 126.378 73.2538 126.378C73.806 126.378 74.2538 126.826 74.2538 127.378C74.2538 127.93 73.806 128.378 73.2538 128.378ZM73.2553 128.377C72.703 128.377 72.2553 127.93 72.2553 127.377C72.2553 126.825 72.703 126.377 73.2553 126.377C73.8076 126.377 74.2553 126.825 74.2553 127.377C74.2553 127.93 73.8076 128.377 73.2553 128.377Z">
</path>
<path     fill="#2A2E37"  d="M97.2538 127.378C97.0139 127.483 96.7695 127.577 96.5205 127.659C96.2716 127.74 96.0192 127.81 95.7635 127.867C95.5077 127.923 95.2499 127.967 94.9898 127.999C94.7295 128.03 94.4685 128.049 94.2067 128.055C93.9447 128.061 93.683 128.054 93.4217 128.034C93.1607 128.014 92.9012 127.981 92.6431 127.936C92.3849 127.891 92.1296 127.833 91.8774 127.762C91.6249 127.692 91.3766 127.609 91.1324 127.514C90.8883 127.42 90.6493 127.313 90.4155 127.195C90.1816 127.076 89.9542 126.947 89.7333 126.806C89.5123 126.665 89.2987 126.514 89.0926 126.352C88.8863 126.191 88.6885 126.02 88.4992 125.838C88.3098 125.657 88.1297 125.467 87.9591 125.269C87.7883 125.07 87.6278 124.863 87.4776 124.649C87.3272 124.434 87.1876 124.213 87.0589 123.985C86.9304 123.756 86.8132 123.522 86.7074 123.282C86.6018 123.043 86.5082 122.798 86.4266 122.55C86.3449 122.301 86.2757 122.048 86.2191 121.792C86.1621 121.537 86.1179 121.279 86.0864 121.018C86.0549 120.758 86.0363 120.497 86.0305 120.235C86.0247 119.974 86.0317 119.712 86.0516 119.451C86.0713 119.189 86.1038 118.93 86.1491 118.672C86.1945 118.414 86.2524 118.158 86.323 117.906C86.3933 117.654 86.4759 117.406 86.5709 117.161C86.6657 116.917 86.7722 116.678 86.8907 116.444C87.0089 116.211 87.1384 115.983 87.2792 115.762C87.4198 115.541 87.5709 115.327 87.7324 115.121C87.8941 114.915 88.0656 114.717 88.2468 114.528C88.4277 114.339 88.6175 114.159 88.8163 113.988C89.0151 113.817 89.2218 113.657 89.4362 113.506C89.6509 113.356 89.8724 113.216 90.1006 113.087C90.3287 112.959 90.5626 112.842 90.8025 112.736C91.0424 112.631 91.2868 112.537 91.5357 112.455C91.7847 112.374 92.037 112.304 92.2928 112.248C92.5485 112.191 92.8064 112.146 93.0664 112.115C93.3265 112.083 93.5875 112.065 93.8495 112.059C94.1114 112.053 94.3729 112.06 94.6342 112.08C94.8955 112.1 95.1551 112.132 95.4131 112.178C95.6711 112.223 95.9264 112.281 96.1789 112.351C96.4311 112.422 96.6794 112.504 96.9238 112.599C97.168 112.694 97.407 112.8 97.6408 112.919C97.8746 113.037 98.102 113.167 98.323 113.307C98.544 113.448 98.7576 113.599 98.964 113.761C99.1701 113.922 99.3678 114.094 99.557 114.275C99.7465 114.456 99.9267 114.646 100.097 114.845C100.268 115.043 100.429 115.25 100.579 115.464C100.729 115.679 100.869 115.9 100.997 116.128C101.126 116.357 101.243 116.591 101.349 116.831C101.455 117.07 101.548 117.315 101.63 117.564C101.712 117.813 101.781 118.065 101.838 118.321C101.895 118.576 101.939 118.834 101.97 119.095C102.002 119.355 102.021 119.616 102.027 119.877C102.032 120.139 102.025 120.401 102.005 120.662C101.986 120.924 101.953 121.183 101.908 121.441C101.863 121.699 101.805 121.954 101.734 122.207C101.664 122.459 101.581 122.708 101.486 122.952C101.391 123.196 101.285 123.435 101.167 123.669C101.048 123.903 100.919 124.13 100.778 124.351C100.638 124.572 100.487 124.786 100.325 124.992C100.163 125.198 99.9919 125.396 99.811 125.585C99.6298 125.775 99.4398 125.955 99.241 126.126C99.0422 126.296 98.8356 126.457 98.6212 126.607C98.4068 126.758 98.1854 126.897 97.9571 127.026C97.7289 127.154 97.4949 127.272 97.2553 127.377">
</path>
<path   fill="rgba(255, 255, 255, 1.00)"  d="M97.6565 128.293M97.6565 128.293Q97.2519 128.471 96.8322 128.609Q96.4124 128.747 95.9809 128.843Q95.5483 128.939 95.11 128.992Q94.6709 129.045 94.2289 129.055Q93.7875 129.065 93.3458 129.031Q92.9051 128.997 92.47 128.921Q92.0337 128.844 91.6079 128.725Q91.1821 128.606 90.7707 128.447Q90.3585 128.287 89.9637 128.087Q89.5688 127.887 89.1964 127.65Q88.8233 127.412 88.4752 127.139Q88.1274 126.867 87.8077 126.561Q87.4884 126.255 87.2007 125.921Q86.9121 125.585 86.6582 125.222Q86.405 124.861 86.1878 124.476Q85.9708 124.09 85.7924 123.686Q85.6142 123.281 85.4763 122.861Q85.3385 122.441 85.2428 122.009Q85.1468 121.578 85.0936 121.139Q85.0405 120.7 85.0307 120.257Q85.0209 119.816 85.0545 119.375Q85.0876 118.934 85.1642 118.499Q85.2408 118.063 85.3599 117.637Q85.4785 117.211 85.639 116.799Q85.7986 116.387 85.9988 115.992Q86.198 115.598 86.436 115.225Q86.6726 114.852 86.9453 114.504Q87.2184 114.156 87.524 113.837Q87.8292 113.518 88.1646 113.229Q88.5003 112.941 88.8619 112.688Q89.2243 112.434 89.6094 112.216Q89.9948 111.999 90.3997 111.821Q90.8039 111.643 91.2241 111.505Q91.6446 111.367 92.0764 111.271Q92.5072 111.175 92.9462 111.122Q93.3852 111.069 93.8275 111.059Q94.2687 111.049 94.7101 111.083Q95.1509 111.116 95.5862 111.193Q96.0215 111.269 96.4471 111.388Q96.8734 111.507 97.2852 111.667Q97.6978 111.827 98.0926 112.027Q98.4871 112.226 98.8605 112.464Q99.2323 112.701 99.5803 112.973Q99.929 113.247 100.248 113.552Q100.568 113.858 100.856 114.193Q101.144 114.529 101.398 114.89Q101.652 115.252 101.869 115.638Q102.086 116.023 102.264 116.428Q102.442 116.832 102.58 117.252Q102.718 117.672 102.814 118.103Q102.91 118.536 102.963 118.975Q103.016 119.413 103.026 119.854Q103.036 120.297 103.003 120.738Q102.969 121.179 102.893 121.614Q102.816 122.05 102.697 122.476Q102.579 122.901 102.419 123.313Q102.259 123.725 102.059 124.12Q101.859 124.514 101.622 124.888Q101.385 125.26 101.112 125.609Q100.839 125.957 100.534 126.276Q100.228 126.596 99.8928 126.884Q99.557 127.172 99.1955 127.426Q98.8339 127.68 98.4484 127.897Q98.063 128.114 97.6593 128.292Q97.5692 128.332 97.473 128.353Q97.3769 128.375 97.2785 128.377Q97.18 128.38 97.083 128.363Q96.9859 128.346 96.8941 128.31Q96.8023 128.274 96.7191 128.222Q96.636 128.169 96.5647 128.101Q96.4935 128.033 96.4369 127.952Q96.3803 127.872 96.3405 127.781Q96.3007 127.691 96.2793 127.595Q96.2578 127.499 96.2555 127.401Q96.2533 127.302 96.2702 127.205Q96.2872 127.108 96.3228 127.016Q96.3583 126.924 96.4111 126.841Q96.464 126.758 96.532 126.687Q96.6 126.616 96.6806 126.559Q96.7612 126.503 96.8513 126.463Q97.1664 126.324 97.4658 126.155Q97.7657 125.986 98.0469 125.789Q98.3286 125.591 98.5893 125.367Q98.8503 125.143 99.0881 124.894Q99.3259 124.646 99.5378 124.375Q99.7502 124.104 99.9342 123.815Q100.119 123.524 100.274 123.218Q100.43 122.91 100.554 122.59Q100.679 122.269 100.771 121.937Q100.863 121.607 100.923 121.268Q100.982 120.93 101.008 120.587Q101.034 120.243 101.027 119.9Q101.019 119.557 100.977 119.215Q100.936 118.873 100.862 118.538Q100.787 118.202 100.68 117.875Q100.573 117.549 100.434 117.233Q100.295 116.919 100.126 116.619Q99.9575 116.32 99.7603 116.039Q99.5628 115.757 99.339 115.496Q99.1148 115.235 98.866 114.997Q98.6174 114.76 98.3477 114.548Q98.0764 114.336 97.7855 114.151Q97.4961 113.966 97.189 113.811Q96.8822 113.656 96.5624 113.532Q96.2411 113.407 95.9106 113.315Q95.5791 113.222 95.24 113.163Q94.9012 113.103 94.5582 113.077Q94.2157 113.051 93.8716 113.059Q93.5279 113.066 93.1867 113.108Q92.8456 113.149 92.5092 113.224Q92.1739 113.298 91.8473 113.405Q91.5209 113.512 91.2053 113.652Q90.8907 113.79 90.5919 113.958Q90.292 114.128 90.0105 114.325Q89.7287 114.523 89.4681 114.746Q89.207 114.971 88.9696 115.219Q88.7315 115.468 88.5195 115.738Q88.3076 116.008 88.1225 116.3Q87.938 116.589 87.7826 116.897Q87.6274 117.203 87.5029 117.524Q87.3784 117.844 87.2861 118.175Q87.1935 118.506 87.134 118.845Q87.0746 119.183 87.0487 119.527Q87.0226 119.87 87.0302 120.213Q87.0378 120.557 87.0791 120.898Q87.1205 121.24 87.1954 121.576Q87.2697 121.911 87.3767 122.238Q87.484 122.565 87.6223 122.879Q87.7614 123.194 87.9299 123.493Q88.0988 123.793 88.2971 124.075Q88.4938 124.357 88.7176 124.617Q88.9415 124.878 89.1908 125.116Q89.4385 125.353 89.71 125.566Q89.9803 125.778 90.2701 125.962Q90.5599 126.147 90.8672 126.302Q91.1741 126.458 91.4942 126.582Q91.8146 126.706 92.1468 126.799Q92.4772 126.892 92.8162 126.951Q93.1549 127.011 93.4976 127.037Q93.8405 127.063 94.1845 127.055Q94.5282 127.047 94.8696 127.006Q95.2109 126.965 95.5461 126.89Q95.8822 126.816 96.2089 126.708Q96.5358 126.601 96.851 126.463Q96.9411 126.423 97.0373 126.402Q97.1334 126.38 97.2319 126.378Q97.3304 126.376 97.4274 126.393Q97.5244 126.41 97.6162 126.446Q97.708 126.482 97.791 126.534Q97.8741 126.587 97.9452 126.655Q98.0164 126.724 98.0729 126.804Q98.1294 126.885 98.1691 126.975Q98.2087 127.065 98.23 127.161Q98.2514 127.258 98.2535 127.356Q98.2557 127.454 98.2386 127.551Q98.2215 127.648 98.1858 127.74Q98.1501 127.832 98.0972 127.915Q98.0443 127.998 97.9762 128.069Q97.9081 128.14 97.8274 128.197Q97.7467 128.253 97.6565 128.293ZM97.2538 128.378C96.7015 128.378 96.2538 127.93 96.2538 127.378C96.2538 126.826 96.7015 126.378 97.2538 126.378C97.8061 126.378 98.2538 126.826 98.2538 127.378C98.2538 127.93 97.8061 128.378 97.2538 128.378ZM97.2553 128.377C96.703 128.377 96.2553 127.93 96.2553 127.377C96.2553 126.825 96.703 126.377 97.2553 126.377C97.8076 126.377 98.2553 126.825 98.2553 127.377C98.2553 127.93 97.8076 128.377 97.2553 128.377Z">
</path>
<path     fill="#D43030"  d="M95.641 123.718C95.5211 123.77 95.3989 123.817 95.2744 123.858C95.1499 123.899 95.0238 123.933 94.8961 123.962C94.768 123.99 94.6391 124.012 94.509 124.028C94.379 124.044 94.2485 124.053 94.1175 124.056C93.9865 124.059 93.8557 124.055 93.7252 124.046C93.5944 124.036 93.4645 124.019 93.3355 123.996C93.2065 123.974 93.079 123.945 92.953 123.91C92.8268 123.875 92.7026 123.833 92.5804 123.786C92.4584 123.738 92.339 123.685 92.2221 123.626C92.1051 123.567 91.9914 123.502 91.8808 123.432C91.7704 123.361 91.6636 123.286 91.5603 123.205C91.4572 123.124 91.3584 123.038 91.2639 122.948C91.1692 122.857 91.0791 122.762 90.9937 122.663C90.9083 122.563 90.828 122.46 90.753 122.353C90.6779 122.246 90.6081 122.135 90.5436 122.021C90.4793 121.907 90.4207 121.79 90.3678 121.67C90.3152 121.55 90.2684 121.428 90.2276 121.303C90.1868 121.179 90.1521 121.053 90.1237 120.925C90.0952 120.797 90.0731 120.668 90.0575 120.538C90.0416 120.408 90.0323 120.277 90.0295 120.146C90.0265 120.015 90.0299 119.884 90.0398 119.754C90.0498 119.623 90.0662 119.494 90.0889 119.365C90.1116 119.236 90.1405 119.108 90.1758 118.982C90.2108 118.856 90.2522 118.731 90.2998 118.609C90.3472 118.487 90.4004 118.368 90.4597 118.251C90.5186 118.134 90.5832 118.02 90.6535 117.91C90.7241 117.799 90.7997 117.692 90.8803 117.589C90.9612 117.486 91.0469 117.387 91.1373 117.293C91.228 117.198 91.323 117.108 91.4223 117.022C91.5218 116.937 91.6251 116.857 91.7322 116.782C91.8396 116.706 91.9503 116.637 92.0644 116.572C92.1786 116.508 92.2956 116.449 92.4156 116.397C92.5353 116.344 92.6573 116.297 92.7818 116.256C92.9063 116.216 93.0325 116.181 93.1605 116.152C93.2883 116.124 93.4173 116.102 93.5475 116.086C93.6776 116.07 93.8081 116.061 93.9391 116.058C94.0699 116.055 94.2006 116.059 94.3314 116.069C94.4619 116.078 94.5917 116.095 94.7207 116.117C94.8497 116.14 94.9773 116.169 95.1036 116.204C95.2298 116.239 95.3539 116.281 95.4758 116.328C95.5981 116.376 95.7176 116.429 95.8345 116.488C95.9515 116.547 96.0652 116.612 96.1758 116.682C96.2862 116.753 96.3929 116.828 96.4959 116.909C96.5993 116.99 96.6981 117.075 96.7926 117.166C96.8874 117.257 96.9774 117.351 97.0629 117.451C97.1483 117.55 97.2286 117.654 97.3036 117.761C97.379 117.868 97.4488 117.979 97.513 118.093C97.5773 118.207 97.6358 118.324 97.6888 118.444C97.7417 118.564 97.7885 118.686 97.8294 118.811C97.8702 118.935 97.9047 119.061 97.9329 119.189C97.9614 119.317 97.9836 119.446 97.9994 119.576C98.0151 119.706 98.0244 119.836 98.0274 119.967C98.0304 120.098 98.0269 120.229 98.0168 120.36C98.007 120.49 97.9907 120.62 97.9681 120.749C97.9454 120.878 97.9164 121.006 97.8811 121.132C97.8461 121.258 97.8048 121.382 97.7572 121.505C97.7098 121.627 97.6566 121.746 97.5977 121.863C97.5385 121.98 97.4737 122.094 97.4034 122.204C97.3331 122.315 97.2575 122.421 97.1766 122.525C97.0957 122.628 97.0101 122.727 96.9196 122.821C96.8292 122.916 96.7342 123.006 96.6346 123.091C96.5354 123.177 96.4321 123.257 96.3247 123.332C96.2174 123.407 96.1068 123.477 95.9929 123.541C95.8787 123.606 95.7617 123.664 95.6418 123.717">
</path>
</svg>
